<?xml version="1.0" encoding="UTF-8"?>
<svg xmlns="http://www.w3.org/2000/svg" width="12.0" height="12.0" viewBox="74.99999999999727 352.4760331153666 12.0 12.0" preserveAspectRatio="none">
  <g>
    <defs>
      <path id="mi-6b051d4b-Path_17-d1224" d="M80.92800006866182 356.76003332136025 C81.69600005149569 356.7960333205556 81.8940000772449 357.45003330705515 81.9060000658008 357.7560333013331 L82.98000004291262 357.7560333013331 C82.9320000439855 356.568033289889 82.08600003719057 355.84203326700083 80.91000001430238 355.84203326700083 C79.58400020599092 355.8420331954752 78.59999999999727 356.6760331153666 78.59999999999727 358.56003332136027 C78.59999999999727 359.72403335569254 79.15800000428881 361.10403318403115 80.90399994849886 361.10403318403115 C82.235999965665 361.10403318403115 82.94999999999727 360.11403319833624 82.96799998283113 359.3340331554209 L81.89400000571932 359.3340331554209 C81.87600000612164 359.6880331396853 81.62400001287187 360.1620331525599 80.91600000858034 360.1980331897532 C80.13000011443819 360.1740330695902 79.79999999999727 359.5620333671366 79.79999999999727 358.56003332136027 C79.79999999999727 356.8260331153666 80.56799983977999 356.77203302381383 80.92800006866182 356.76003332136025 Z M80.99999999999727 352.4760331153666 C77.68800001144136 352.4760331153666 74.99999999999727 355.1640331268107 74.99999999999727 358.4760331153666 C74.99999999999727 361.7880331039225 77.68800001144136 364.4760331153666 80.99999999999727 364.4760331153666 C84.31199998855318 364.4760331153666 86.99999999999727 361.7880331039225 86.99999999999727 358.4760331153666 C86.99999999999727 355.1640331268107 84.31200027465547 352.4760331153666 80.99999999999727 352.4760331153666 Z M80.99999999999727 363.2760331153666 C78.35400009155 363.2760331153666 76.19999999999727 361.122033166865 76.19999999999727 358.4760331153666 C76.19999999999727 355.8300330638682 78.35399994849885 353.6760331153666 80.99999999999727 353.6760331153666 C83.64600005149569 353.6760331153666 85.79999999999727 355.8300330638682 85.79999999999727 358.4760331153666 C85.79999999999727 361.122033166865 83.64599990844454 363.2760331153666 80.99999999999727 363.2760331153666 Z "></path>
    </defs>
    <g style="mix-blend-mode:normal">
      <use xmlns:xlink="http://www.w3.org/1999/xlink" xlink:href="#mi-6b051d4b-Path_17-d1224" fill="#6C757D" fill-opacity="1.0"></use>
    </g>
  </g>
</svg>
