<?xml version="1.0" encoding="UTF-8"?>
<svg xmlns="http://www.w3.org/2000/svg" width="367.0" height="533.0" viewBox="1026.0 2709.0 367.0 533.0" preserveAspectRatio="none">
  <g>
    <defs>
      <clipPath id="s-Path_5-d1224_clipping">
        <path d="M1026.0 2709.0 L1393.0 2709.0 L1393.0 3242.0 L1026.0 3242.0 Z " fill="black"></path>
      </clipPath>
      <path id="s-Path_2-d1224" d="M1518.2310009717048 2760.329746766958 C1518.2035351513923 2760.3855634173487 1518.1760082959236 2760.4413648089503 1518.148542475611 2760.497181459341 C1518.202497553736 2760.4545941790675 1518.256452631861 2760.412022157583 1518.3104687451423 2760.369495912466 L1518.2310009717048 2760.329746766958 Z M1518.148542475611 2760.497181459341 C1497.0754223584236 2777.132252260122 1479.9529247998298 2798.0702863177394 1465.1638012646736 2820.273823305044 C1450.3765087842048 2842.6137280902003 1438.252546381861 2866.821919008169 1428.9906445263923 2892.063618226919 C1424.0615673779548 2904.585102601919 1420.6429882763923 2917.6630750140284 1417.0654125927986 2930.5820508441066 C1415.7139111279548 2937.1806836566066 1414.2430859326423 2943.7395520648097 1413.010847163111 2950.3779187640284 C1412.4543286084236 2953.6772351702784 1411.6195507763923 2956.9367871722316 1411.3015576123298 2960.315601869497 L1410.148786616236 2970.3327832659816 C1406.8728466748298 2995.5612988909816 1407.770124506861 3021.289204164419 1411.962263178736 3046.232533021841 C1404.785993647486 3055.5934949359034 1398.288679194361 3065.4943433245753 1392.624128413111 3075.8622632464503 C1397.7399731396736 3056.9418530902003 1400.9802685498298 3037.5820508441066 1402.5563793896736 3018.1528821429347 C1403.9476757763923 3005.392902894888 1404.0271435498298 2992.593159242544 1404.225935053736 2979.7934461077784 C1403.987409663111 2967.0334668597316 1403.6694164990486 2954.193989320669 1402.3973828076423 2941.473743959341 C1400.250837397486 2915.993549867544 1395.8385449170173 2890.712086244497 1389.279645991236 2865.987141176138 C1382.6015454052986 2841.341694398794 1374.1743603467048 2816.9347577532862 1361.2156201123298 2794.4756055316066 C1362.6864453076423 2820.2340741595362 1365.0317211865486 2845.078266664419 1367.2180004834236 2869.922474428091 C1369.523542475611 2894.726917787466 1371.8688183545173 2919.332600160513 1373.935895991236 2943.9780469378566 L1374.8501415967048 2953.2002149066066 L1375.5259228467048 2962.4621167620753 L1377.1556835888923 2980.946217103872 L1380.0972119092048 3018.033619447622 C1382.310651850611 3041.090168519888 1383.462751459986 3064.1467175921534 1386.5402050732673 3087.870472474966 C1384.664167475611 3091.881702943716 1382.9130688427986 3095.954517885122 1381.295026850611 3100.085133119497 C1381.4218579052986 3091.958332582388 1380.9343701123298 3083.7944837054347 1379.6599560498298 3075.7516675433253 C1378.0301953076423 3064.462482973013 1375.2873974560798 3053.3322644671534 1371.709821772486 3042.480335756216 C1369.8812695263923 3037.0742383441066 1367.8142529248298 3031.747639223013 1365.588239741236 3026.460773988638 C1364.475202631861 3023.797474428091 1363.2429028271736 3021.213703676138 1361.9709301709236 3018.6299024066066 C1360.8148632763923 3016.282825990591 1359.7514477490486 3014.120960756216 1358.3726025342048 3011.6273999652003 C1352.774763178736 2999.2007031878566 1347.2175122021736 2986.7339063128566 1342.493024897486 2973.8705945452784 C1339.909284663111 2967.5104871234034 1337.8024731396736 2960.991352601919 1335.4174023388923 2954.5119824847316 C1333.3503857373298 2947.9531140765284 1330.885847163111 2941.473743959341 1329.0175610302986 2934.835377260122 C1324.764265131861 2921.6381421527003 1320.987897944361 2908.2421460589503 1317.4103832959236 2894.6076550921534 C1313.7930126904548 2880.9731641253566 1310.453962397486 2867.219410463247 1307.1149121045173 2852.988667055044 C1303.457868647486 2867.219410463247 1302.3050976513923 2881.927174135122 1302.1858349560798 2896.515705629263 C1302.106306147486 2911.143971010122 1303.2590771435798 2925.8119702777003 1305.644147944361 2940.320972963247 C1308.068952631861 2954.7902417620753 1311.4080029248298 2969.2197461566066 1316.1383496045173 2983.211994691763 C1318.2451000927986 2990.2876477679347 1321.1468945263923 2997.1247449359034 1323.849958491236 3004.001637025747 C1325.161726069361 3007.4599500140284 1326.8312817334236 3010.799000306997 1328.3815747021736 3014.138050599966 C1329.9716015576423 3017.477131410513 1331.521833491236 3020.8559461077784 1333.1913891552986 3024.1552319964503 L1333.5491162060798 3024.8310132464503 L1333.7876415967048 3025.2285047015284 C1334.860944819361 3026.9377942523097 1336.2521801709236 3029.283100648794 1337.444685053736 3031.429615541372 C1338.6769848584236 3033.6159253558253 1339.8297558545173 3035.881702943716 1341.0620556592048 3038.1474805316066 C1343.4867993115486 3042.639332338247 1345.6731396435798 3047.290150209341 1347.8991528271736 3051.940998598013 C1352.3115063427986 3061.282398744497 1356.127546381861 3070.822590394888 1359.665388178736 3080.601246400747 C1363.2429028271736 3090.3799329241847 1365.9459667920173 3100.357349916372 1368.3707714795173 3110.6527905902003 C1369.9382153271736 3117.3335156878566 1370.9741039990486 3124.097248598013 1371.8113232373298 3131.0622144183253 C1366.740095209986 3153.877094789419 1365.4870434521736 3177.5652051409816 1367.6949902295173 3200.8073926409816 C1367.9440136670173 3203.543110414419 1368.2372265576423 3206.2726636370753 1368.5729199170173 3208.995502992544 C1367.384382319361 3206.521626039419 1366.2238598584236 3204.0473218402003 1365.150983881861 3201.5229688128566 C1362.2093945263923 3195.321857973013 1359.625593256861 3188.9616895159816 1356.8827954052986 3182.760578676138 C1351.7152539013923 3170.199360414419 1346.8656445263923 3157.6381421527003 1342.3738232373298 3144.957661195669 C1338.0409985302986 3132.237446351919 1333.8273754834236 3119.517231508169 1329.9318066357673 3106.6777539691066 C1328.1033154248298 3100.198353334341 1326.036237788111 3093.838245912466 1324.3667431592048 3087.3191419085597 C1322.4587231396736 3080.879536195669 1320.789167475611 3074.3604016741847 1319.040144038111 3067.881031556997 C1312.2825146435798 3041.844318910513 1306.0416699170173 3015.5691113909816 1300.1982861279548 2989.0156140765284 C1294.235700678736 2962.4223828753566 1288.511579584986 2935.6701550921534 1281.8732128857673 2908.4011731585597 L1281.8334789990486 2908.4011731585597 C1276.6261425732673 2936.1471753558253 1276.2683544873298 2964.290669008169 1277.977644038111 2992.195667787466 C1279.8061962842048 3020.1404309710597 1284.2980175732673 3047.926167055044 1291.373640131861 3075.195179506216 C1293.2816601513923 3081.992542787466 1295.1499462842048 3088.750172181997 1297.296491694361 3095.4680371722316 C1299.4430371045173 3102.185902162466 1301.8280468701423 3108.824299379263 1304.2528515576423 3115.4626660784816 C1309.3409863232673 3128.6598706683253 1315.1445751904548 3141.5788770159816 1321.7829418896736 3154.1003613909816 C1328.5803051709236 3166.542316957388 1336.172712397486 3178.586750551138 1344.719099116236 3189.8759961566066 C1349.2109204052986 3195.4013257464503 1353.5437451123298 3200.966450258169 1358.552351069361 3205.974995180044 C1361.0168896435798 3208.5190625628566 1363.362165522486 3211.102863832388 1366.025495600611 3213.487934633169 C1367.2451000927986 3214.561909242544 1368.4396801709236 3215.644184633169 1369.6398144482673 3216.7157788714503 C1373.6401196240486 3242.862141176138 1381.441267084986 3268.3405347308253 1391.4863720654548 3292.6772046527003 C1392.4113598584236 3296.3896680316066 1393.455671381861 3299.973957582388 1394.599714350611 3303.481525941763 C1386.0408154248298 3289.948322816763 1377.2687206982673 3276.623371644888 1368.410505366236 3263.3750195941066 C1350.2842236279548 3236.463764711294 1331.8000927685798 3209.950092836294 1313.1967602490486 3183.555561586294 L1257.1880322217048 3104.7299390277003 C1238.6244335888923 3078.3354382952784 1220.021101069361 3052.1794629534816 1202.3320141552986 3024.3539624652003 C1204.1208325146736 3032.383625551138 1206.3071118115486 3040.3735242327784 1208.5729199170173 3048.363422914419 C1211.1169262646736 3056.234058900747 1214.098249506861 3063.905933900747 1217.0397778271736 3071.6970715960597 C1220.021101069361 3079.4484754046534 1223.5986767529548 3086.8420911273097 1226.9774609326423 3094.3550000628566 C1230.356306147486 3101.907612367544 1234.1326122998298 3109.221760316763 1237.9884472607673 3116.456379457388 C1245.501325678736 3131.164143129263 1254.047712397486 3145.156391664419 1262.5146313427986 3159.228169008169 L1275.9106274365486 3179.858784242544 C1280.402448725611 3186.695881410513 1285.1725292920173 3193.3740430316066 1289.8630810498298 3200.091877504263 C1308.7844677685798 3226.804340883169 1329.0572949170173 3252.523090883169 1350.6816845654548 3277.0492749652003 C1368.7156201123298 3297.3952222308253 1387.4081860302986 3317.1648145159816 1407.7627392529548 3335.4460034808253 C1410.0780468701423 3340.2024121722316 1412.5200024365486 3344.890217348013 1415.0778637646736 3349.5148511370753 C1416.8206005810798 3352.685383363638 1418.618757319361 3355.823811098013 1420.4684887646736 3358.9308667620753 C1405.4781933545173 3340.1411328753566 1389.7806835888923 3322.2004590472316 1373.896101069361 3304.5170484027003 C1353.1064892529548 3281.541096254263 1331.998884272486 3259.0024610003566 1310.5334912060798 3236.8612866839503 C1289.0283642529548 3214.759907289419 1267.5629711865486 3192.7777905902003 1245.8988476513923 3170.914875551138 C1224.2346630810798 3148.972492738638 1202.6500683545173 3127.387836976919 1182.0194226025642 3103.5771680316066 C1184.7622204541267 3110.8913159808253 1187.6640148877204 3118.364399476919 1191.082593989283 3125.5195508441066 C1194.6601391552986 3132.5554395159816 1198.4364758252204 3139.5515332659816 1202.3718090771736 3146.4284253558253 C1206.5456372021736 3153.106525941763 1210.7591992138923 3159.7846875628566 1215.0920239209236 3166.3833203753566 C1219.5043164013923 3172.902424379263 1224.1551953076423 3179.222797914419 1228.806013178736 3185.582905336294 C1247.687604975611 3210.665607973013 1268.1989575146736 3234.4365430316066 1289.9426098584236 3256.776447816763 C1311.6862622021736 3279.1958203753566 1334.423688959986 3300.5419507464503 1358.2740917920173 3320.655842348013 C1381.0442333935798 3339.7191968402003 1404.5342236279548 3357.9907422503566 1429.9426098584236 3373.9294019183253 C1435.2982617138923 3381.947590394888 1440.975202631861 3389.7499585589503 1446.899274897486 3397.349018617544 L1384.2710400342048 3370.6225171527003 C1358.552351069361 3359.492329164419 1333.1118603467048 3348.123615785513 1308.1086865185798 3335.959858461294 C1283.1055126904548 3323.7961621722316 1258.5792675732673 3310.8771558245753 1234.8481274365486 3296.527180238638 C1223.0421581982673 3289.292561098013 1211.3157177685798 3281.8591504534816 1199.9469738720954 3273.7500195941066 C1188.4987927197517 3265.720356508169 1177.5673352002204 3257.014973207388 1166.5563793896736 3247.9120679339503 C1181.6616650342048 3272.2394605120753 1202.6102734326423 3292.8700757464503 1225.307966303736 3310.4398999652003 C1248.124860834986 3328.0097241839503 1272.9690380810798 3342.757221742544 1298.7275219677986 3355.278706117544 C1324.4860058545173 3367.800190492544 1351.1984692334236 3378.0956616839503 1378.4674511670173 3386.443256898794 C1402.2612744092048 3393.543354555044 1426.4474316357673 3399.4362988909816 1451.1310253857673 3402.6498609027003 C1463.576032709986 3417.8156934222316 1477.0368481396736 3432.167866273794 1491.4787426709236 3445.3935742816066 C1506.5840283154548 3459.2665601214503 1522.6035595654548 3472.1457715472316 1539.3783398388923 3483.912006898794 L1547.4875317334236 3472.1457715472316 C1530.9909497021736 3461.0155835589503 1515.2099438427986 3448.812153383169 1500.3431835888923 3435.614887758169 C1485.436628413111 3422.457417055044 1471.5636425732673 3408.1471753558253 1458.7638989209236 3392.9226270159816 C1446.0834179638923 3377.6186109027003 1434.4762402295173 3361.400288148794 1424.618024897486 3344.148518129263 C1419.6492138623298 3335.562336488638 1415.1175976513923 3326.737690492544 1411.0630322217048 3317.6745191058253 C1407.048200678736 3308.6908765277003 1403.3911572217048 3299.2301831683253 1400.9663525342048 3290.1670117816066 L1400.8073559521736 3289.610493226919 L1400.688093256861 3289.3322339495753 C1399.355085444361 3286.2731519183253 1398.0593090771736 3283.196674867544 1396.8039379834236 3280.1035352191066 C1399.4886914013923 3274.713032289419 1401.635847163111 3269.396137758169 1403.8284130810798 3264.170063539419 C1405.4582348584236 3260.7514844378566 1406.9687329052986 3257.372700258169 1408.399763178736 3253.9939160784816 C1409.8307934521736 3250.615070863638 1411.0630322217048 3247.2362866839503 1412.7325878857673 3243.976704164419 C1414.2828808545173 3240.717121644888 1415.7536450146736 3237.457600160513 1417.1051464795173 3234.1980176409816 C1418.4169140576423 3230.8987012347316 1420.2057324170173 3227.8776441058253 1421.7162304638923 3224.697590394888 C1424.5385571240486 3218.2580151995753 1428.0763378857673 3212.3351636370753 1431.1371899365486 3206.1340527972316 C1437.9742871045173 3194.169086976919 1445.2089062451423 3182.561848207388 1453.636091303736 3171.312397523794 C1462.0632153271736 3159.9834180316066 1471.2456494092048 3149.0520215472316 1482.5348339795173 3137.6435132464503 L1482.5348339795173 3137.6037793597316 C1474.3461743115486 3137.6435742816066 1466.4755688427986 3140.0285840472316 1458.9228955029548 3143.049641176138 C1455.2658520459236 3144.7191968402003 1451.4895458935798 3146.3886914691066 1448.0709667920173 3148.535236879263 C1446.2822094677986 3149.5290112933253 1444.5729199170173 3150.6420484027003 1442.8238964795173 3151.7152905902003 C1441.1940747021736 3152.907795473013 1439.5245800732673 3154.0605664691066 1437.8948193310798 3155.332600160513 C1424.8962841748298 3165.230549379263 1414.2033520459236 3178.0700269183253 1406.1339550732673 3192.221272035513 L1400.8073559521736 3203.192463441763 C1399.0185986279548 3206.8495679339503 1397.865827631861 3210.7451367816066 1396.554060053736 3214.561176820669 C1393.8112622021736 3222.1535840472316 1392.3007031201423 3230.0639844378566 1391.068464350611 3237.9743237933253 C1390.3131542920173 3241.8698926409816 1390.193952631861 3245.8847241839503 1390.0746899365486 3249.899555726919 C1389.955427241236 3253.874653383169 1389.955427241236 3257.849690004263 1389.9951611279548 3261.785053773794 C1390.001569819361 3261.865131898794 1390.0080395459236 3261.9452710589503 1390.0145703076423 3262.0253491839503 C1386.7071972607673 3252.430012269888 1383.832380366236 3242.695942445669 1381.4817333935798 3232.846760316763 C1383.7343579052986 3213.144184633169 1392.0951977490486 3195.9377637347316 1401.6818676709236 3179.3817944964503 C1407.8034497021736 3168.967121644888 1414.6803417920173 3158.9101758441066 1422.0342236279548 3149.171223207388 C1425.691267084986 3144.321674867544 1429.467634272486 3139.472065492544 1433.3234081982673 3134.9802442034816 C1436.8612499951423 3130.8064160784816 1441.1940747021736 3126.3940625628566 1445.4076367138923 3122.419025941763 C1462.5402050732673 3106.319965883169 1483.0912914990486 3094.037006898794 1506.0275097607673 3085.888111635122 C1529.0034008740486 3077.858479066763 1553.927106928736 3073.2871289691066 1580.043317866236 3072.571613832388 L1580.0830517529548 3072.531849428091 C1574.0012036084236 3069.948078676138 1567.6013622998298 3068.159290834341 1561.1219921826423 3066.767994447622 C1554.6426220654548 3065.336994691763 1548.004255366236 3064.382954164419 1541.3261547802986 3063.8662000140284 C1537.1481152295173 3063.5304761370753 1532.9428539990486 3063.361988588247 1528.723737788111 3063.361988588247 C1519.4553051709236 3063.361988588247 1510.1200390576423 3064.1750073870753 1500.8599072217048 3065.8139844378566 C1473.9089184521736 3070.504566713247 1447.5541821240486 3082.867054506216 1426.5260449170173 3101.470387025747 C1421.2391796826423 3106.2007031878566 1416.469099116236 3110.931049867544 1411.5797558545173 3116.496174379263 C1407.1277294873298 3121.8227735003566 1403.0333691357673 3127.228840394888 1399.1775341748298 3132.8336987933253 C1391.5851879834236 3144.083149476919 1384.9468212842048 3156.0481152972316 1379.8586865185798 3168.8478589495753 C1377.811628413111 3174.1211133441066 1376.0142040967048 3179.5427442034816 1374.574812006861 3185.0766797503566 C1374.0262890576423 3173.1176343402003 1374.4313183545173 3161.1120191058253 1375.8497753857673 3149.232563539419 C1380.7433300732673 3143.5793652972316 1385.1691723584236 3137.8156934222316 1389.6373730420173 3132.1579175433253 C1392.8572216748298 3128.3816113909816 1395.9975414990486 3124.605305238638 1399.0583325146736 3120.789204164419 C1400.6086254834236 3118.9209180316066 1402.0793896435798 3116.9731641253566 1403.550153803736 3115.0651441058253 C1404.9414501904548 3113.0775952777003 1406.7699414013923 3111.408039613638 1408.2407055615486 3109.5397534808253 C1411.4208203076423 3105.882710023794 1414.521345209986 3102.2256360491847 1417.5026684521736 3098.489094301138 C1418.9734326123298 3096.5810437640284 1420.5634594677986 3094.8320203265284 1422.193220209986 3093.0829968890284 L1426.9633007763923 3087.7961316546534 C1433.0452099560798 3080.482014223013 1439.8027783154548 3073.9231458148097 1446.2424145459236 3067.006519838247 C1459.5986767529548 3053.7297864398097 1473.3921337842048 3041.0493054827784 1488.298688959986 3029.322834535513 C1503.2847119092048 3017.5566297015284 1518.9464550732673 3006.5456738909816 1536.8740673779548 2996.409260316763 L1536.9535351513923 2996.369495912466 C1534.830183100611 2996.166889711294 1532.705183100611 2996.073322816763 1530.5815869092048 2996.073322816763 C1522.289167475611 2996.073322816763 1514.0178051709236 2997.499867006216 1505.9479809521736 2999.430286928091 L1498.395368647486 3001.4973340472316 C1495.8910351513923 3002.2128491839503 1493.5060253857673 3003.206623598013 1491.0017529248298 3004.081135316763 C1486.0328808545173 3005.790424867544 1481.3025341748298 3007.976704164419 1476.5721874951423 3010.2424817523097 C1457.7303906201423 3019.424915834341 1440.7568188427986 3032.184895082388 1425.9695263623298 3046.892658754263 L1415.4355908154548 3058.460102601919 C1413.6865673779548 3060.407887025747 1412.0170727490486 3062.395435853872 1410.5065136670173 3064.5022168597316 C1408.9562206982673 3066.569263978872 1407.3661938427986 3068.6362805804347 1405.8556957959236 3070.782825990591 C1399.5353222607673 3079.0509839495753 1394.4075146435798 3088.0346570452784 1389.518171381861 3097.137562318716 C1389.1556835888923 3097.762104555044 1388.8049755810798 3098.392933412466 1388.4643383740486 3099.029133363638 C1398.5492993115486 3073.3026929339503 1413.9874706982673 3049.697163148794 1432.8066845654548 3029.283070131216 C1443.3804150342048 3017.834858461294 1454.9875927685798 3007.300922914419 1467.3898144482673 2997.8004956683253 C1479.685407709986 2988.4211926898097 1492.7233105420173 2979.8232617816066 1506.5035839795173 2972.897633119497 C1517.9016552685798 2969.972065492544 1529.2702465771736 2966.753742738638 1540.729841303736 2963.5354199847316 C1555.7556591748298 2959.043568178091 1570.4236279248298 2953.279713197622 1583.8991528271736 2945.2898145159816 C1597.4541455029548 2937.4589429339503 1610.4526196240486 2928.515034242544 1622.3380566357673 2918.1400952777003 C1628.2211743115486 2912.892994447622 1633.9452954052986 2907.407398744497 1639.1526318310798 2901.4050488909816 C1644.3202343701423 2895.4424329241847 1649.2890454052986 2889.0823255023097 1652.906354975611 2881.927174135122 C1646.0295239209236 2885.981770082388 1639.3911572217048 2889.7580762347316 1632.6732617138923 2893.4946485003566 L1612.7978955029548 2904.6646008929347 L1573.3254223584236 2926.6467481097316 C1570.0261669873298 2928.475269838247 1566.7665844677986 2930.3833203753566 1563.5467968701423 2932.3311047991847 C1560.287214350611 2934.199390931997 1557.0276318310798 2936.1471753558253 1553.8078442334236 2938.174458070669 C1547.4477368115486 2942.308521791372 1541.0081005810798 2946.4028516253566 1534.7275219677986 2950.8549390277003 C1528.3674145459236 2955.1877637347316 1521.9277783154548 2959.441090150747 1515.4086743115486 2963.654652162466 C1510.773542475611 2966.650532289419 1505.9374218701423 2969.184223695669 1501.2004833935798 2971.998676820669 C1493.077497553736 2976.1218762835597 1485.277448725611 2980.7438550433253 1477.7106762646736 2985.7375989398097 C1489.1660595654548 2969.3251538714503 1500.9001293896736 2955.147602601919 1513.4608593701423 2941.195484681997 C1526.260603022486 2926.8852429827784 1539.5771313427986 2913.0917554339503 1552.9731274365486 2899.1790051898097 C1566.4088574170173 2885.305988832388 1579.9638500927986 2871.393238588247 1593.439313959986 2857.0432324847316 C1606.835310053736 2842.6137280902003 1620.2710400342048 2828.0649610003566 1632.8720532177986 2811.6479077777003 L1632.8323193310798 2811.6479230364894 C1613.195417475611 2818.4055371722316 1595.5858593701423 2828.661228700552 1578.8508129834236 2840.029926820669 C1562.1952954052986 2851.5576367816066 1546.6129589795173 2864.635609193716 1532.4617138623298 2879.303638978872 C1518.3104687451423 2893.9319043597316 1505.4709912060798 2910.1501965960597 1495.1755810498298 2928.1572766741847 C1490.047712397486 2937.1409192523097 1485.5956249951423 2946.6016126116847 1482.2963085888923 2956.5392651995753 C1479.1162548779548 2966.195972963247 1476.8063183545173 2976.2310071429347 1476.7325878857673 2986.3860364398097 C1472.7914868115486 2989.0104871234034 1468.9130078076423 2991.7348218402003 1465.0842724560798 2994.540943666372 C1457.8000317334236 2999.919025941763 1450.7748242138923 3005.633930726919 1444.045759272486 3011.685658021841 C1448.640729975611 3004.143238588247 1452.5420361279548 2996.4787793597316 1456.4980908154548 2988.896351381216 C1458.9228955029548 2984.325031801138 1461.268171381861 2979.7536817034816 1463.5339794873298 2975.1823621234034 C1464.6867504834236 2972.916584535513 1465.7599926709236 2970.5712781390284 1466.8332958935798 2968.305500551138 C1467.9860668896736 2966.039692445669 1469.178571772486 2963.7739148577784 1470.2518749951423 2961.468372865591 C1472.5176220654548 2956.8970227679347 1474.703962397486 2952.3257031878566 1476.7709789990486 2947.7543530902003 L1483.3298168896736 2934.1198621234034 C1485.4763622998298 2929.5485425433253 1487.424177241236 2924.9374585589503 1489.7297192334236 2920.445637269888 L1496.0500927685798 2906.771381898794 L1521.5700512646736 2852.114155336294 C1530.1164379834236 2833.7493176898097 1538.583356928736 2815.3844800433253 1547.2887402295173 2795.9861340960597 L1547.328474116236 2795.946384950552 C1538.2653027295173 2801.7102399310206 1530.3946972607673 2808.9448743304347 1522.9215527295173 2816.4577527484034 L1517.4359570263923 2822.221607728872 C1515.6471997021736 2824.1693921527003 1513.977644038111 2826.196674867544 1512.2683544873298 2828.184223695669 C1508.7703076123298 2832.159290834341 1505.5902539013923 2836.3728681048487 1502.4102001904548 2840.5466962298487 C1489.809187006861 2857.440754457388 1479.1957836865486 2875.6863294085597 1470.2120800732673 2894.6474194964503 L1463.931501459986 2909.0769238909816 C1461.9042187451423 2913.9265027484034 1460.0756664990486 2918.815846010122 1458.3266430615486 2923.7846875628566 C1454.709333491236 2933.6428723773097 1451.7280102490486 2943.660053773794 1449.1840039013923 2953.8362317523097 C1447.7927075146736 2958.8845715960597 1446.6796704052986 2964.0124097308253 1445.7654247998298 2969.180012269888 C1444.7716503857673 2974.347584291372 1443.936872553736 2979.5151868304347 1443.1418896435798 2984.682789369497 C1441.8732128857673 2994.495960756216 1441.129987788111 3004.3792005023097 1441.1093579052986 3014.365345521841 C1437.0890331982673 3018.088245912466 1433.1792431592048 3021.9345288714503 1429.3881054638923 3025.9042554339503 C1424.268171381861 3031.265797181997 1419.371931147486 3036.864094301138 1414.7380810498298 3042.6808667620753 C1420.764020991236 3019.408283754263 1425.4028759717048 2996.787495180044 1432.1706982373298 2974.586109681997 C1435.2712231396736 2962.1838880023097 1439.6040478467048 2950.1393933734034 1443.102155756861 2937.8961987933253 L1449.3032665967048 2919.8493543109034 C1450.336774897486 2916.828297181997 1451.211286616236 2913.767506166372 1452.324323725611 2910.8259473284816 L1455.7428417920173 2901.921803041372 C1464.4482861279548 2878.031605287466 1474.1077099560798 2854.4594312152003 1484.7211132763923 2831.046268983755 C1495.1909008740486 2807.608295961294 1506.3728466748298 2784.4077344378566 1518.148542475611 2760.497181459341 Z "></path>
    </defs>
    <g clip-path="url(#s-Path_5-d1224_clipping)">
      <g transform="rotate(297.256677357145 1409.7313671826423 3122.120876832876)" style="mix-blend-mode:normal">
        <use xmlns:xlink="http://www.w3.org/1999/xlink" xlink:href="#s-Path_2-d1224" fill="#FFFFFF" fill-opacity="0.6"></use>
      </g>
    </g>
  </g>
</svg>
