<svg xmlns="http://www.w3.org/2000/svg" width="470.8869323730469" height="723.582275390625" viewBox="525.4630432128906 237.67487805128818 470.8869323730469 723.582275390625" preserveAspectRatio="none">            	  <g>            	    <defs>            	      <path id="s-Path_1-d1224" d="M861.6746215820312 237.67487805128818 C861.6471557617188 237.7306947016788 861.61962890625 237.78649609328036 861.5921630859375 237.842312743671 C861.6461181640625 237.79972546339755 861.7000732421875 237.75715344191318 861.7540893554688 237.714627196796 L861.6746215820312 237.67487805128818 Z M861.5921630859375 237.842312743671 C840.51904296875 254.47738354445224 823.3965454101562 275.4154176020694 808.607421875 297.6189545893741 C793.8201293945312 319.95885937453033 781.6961669921875 344.1670502924991 772.4342651367188 369.4087495112491 C767.5051879882812 381.9302338862491 764.0866088867188 395.00820629835846 760.509033203125 407.9271821284366 C759.1575317382812 414.5258149409366 757.6867065429688 421.0846833491397 756.4544677734375 427.72305004835846 C755.89794921875 431.02236645460846 755.0631713867188 434.2819184565616 754.7451782226562 437.6607331538272 L753.5924072265625 447.6779145503116 C750.3164672851562 472.9064301753116 751.2137451171875 498.6343354487491 755.4058837890625 523.577664306171 C748.2296142578125 532.9386262202335 741.7322998046875 542.8394746089053 736.0677490234375 553.2073945307803 C741.18359375 534.2869843745303 744.4238891601562 514.9271821284366 746.0 495.4980134272647 C747.3912963867188 482.73803417921783 747.4707641601562 469.9382905268741 747.6695556640625 457.13857739210846 C747.4310302734375 444.3785981440616 747.113037109375 431.5391206049991 745.8410034179688 418.81887524367096 C743.6944580078125 393.3386811518741 739.2821655273438 368.0572175288272 732.7232666015625 343.33227246046783 C726.045166015625 318.6868256831241 717.6179809570312 294.2798890376163 704.6592407226562 271.8207368159366 C706.1300659179688 297.5792054438663 708.475341796875 322.4233979487491 710.66162109375 347.26760571242096 C712.9671630859375 372.07204907179596 715.3124389648438 396.67773144484283 717.3795166015625 421.3231782221866 L718.2937622070312 430.5453461909366 L718.9695434570312 439.80724804640533 L720.5993041992188 458.2913483882022 L723.5408325195312 495.3787507319522 C725.7542724609375 518.4352998042178 726.9063720703125 541.4918488764835 729.9838256835938 565.215603759296 C728.1077880859375 569.226834228046 726.356689453125 573.2996491694522 724.7386474609375 577.4302644038272 C724.865478515625 569.3034638667178 724.3779907226562 561.1396149897647 723.1035766601562 553.0967988276553 C721.4738159179688 541.8076142573428 718.7310180664062 530.6773957514835 715.1534423828125 519.825467040546 C713.3248901367188 514.4193696284366 711.2578735351562 509.09277050734283 709.0318603515625 503.80590527296783 C707.9188232421875 501.14260571242096 706.6865234375 498.55883496046783 705.41455078125 495.9750336909366 C704.2584838867188 493.62795727492096 703.195068359375 491.46609204054596 701.8162231445312 488.97253124953033 C696.2183837890625 476.5458344721866 690.6611328125 464.0790375971866 685.9366455078125 451.21572582960846 C683.3529052734375 444.85561840773346 681.24609375 438.3364838862491 678.8610229492188 431.8571137690616 C676.7940063476562 425.29824536085846 674.3294677734375 418.81887524367096 672.461181640625 412.1805085444522 C668.2078857421875 398.98327343703033 664.4315185546875 385.58727734328033 660.85400390625 371.95278637648346 C657.2366333007812 358.3182954096866 653.8975830078125 344.5645417475772 650.5585327148438 330.3337983393741 C646.9014892578125 344.5645417475772 645.7487182617188 359.2723054194522 645.6294555664062 373.86083691359283 C645.5499267578125 388.4891022944522 646.7026977539062 403.15710156203033 649.0877685546875 417.6661042475772 C651.5125732421875 432.13537304640533 654.8516235351562 446.5648774409366 659.5819702148438 460.55712597609283 C661.688720703125 467.6327790522647 664.5905151367188 474.46987622023346 667.2935791015625 481.3467683100772 C668.6053466796875 484.80508129835846 670.27490234375 488.1441315913272 671.8251953125 491.48318188429596 C673.4152221679688 494.82226269484283 674.9654541015625 498.20107739210846 676.635009765625 501.50036328078033 L676.9927368164062 502.17614453078033 L677.2312622070312 502.57363598585846 C678.3045654296875 504.2829255366397 679.69580078125 506.6282319331241 680.8883056640625 508.7747468257022 C682.12060546875 510.96105664015533 683.2733764648438 513.226834228046 684.5056762695312 515.4926118159366 C686.930419921875 519.9844636225772 689.1167602539062 524.635281493671 691.3427734375 529.2861298823428 C695.755126953125 538.6275300288272 699.5711669921875 548.1677216792178 703.1090087890625 557.9463776850772 C706.6865234375 567.7250642085147 709.3895874023438 577.7024812007022 711.8143920898438 587.9979218745303 C713.3818359375 594.6786469721866 714.417724609375 601.4423798823428 715.2549438476562 608.4073457026553 C710.1837158203125 631.2222260737491 708.9306640625 654.9103364253116 711.1386108398438 678.1525239253116 C711.3876342773438 680.8882416987491 711.6808471679688 683.6177949214053 712.0165405273438 686.3406342768741 C710.8280029296875 683.8667573237491 709.66748046875 681.3924531245303 708.5946044921875 678.8681000971866 C705.6530151367188 672.6669892573428 703.0692138671875 666.3068208003116 700.326416015625 660.1057099604678 C695.1588745117188 647.5444916987491 690.3092651367188 634.9832734370303 685.8174438476562 622.3027924799991 C681.484619140625 609.5825776362491 677.27099609375 596.8623627924991 673.3754272460938 584.0228852534366 C671.5469360351562 577.543484618671 669.4798583984375 571.183377196796 667.8103637695312 564.6642731928897 C665.90234375 558.2246674799991 664.2327880859375 551.7055329585147 662.4837646484375 545.2261628413272 C655.7261352539062 519.1894501948428 649.4852905273438 492.9142426753116 643.6419067382812 466.36074536085846 C637.6793212890625 439.7675141596866 631.9552001953125 413.01528637648346 625.3168334960938 385.7463044428897 L625.277099609375 385.7463044428897 C620.0697631835938 413.49230664015533 619.7119750976562 441.6358002924991 621.4212646484375 469.54079907179596 C623.2498168945312 497.4855622553897 627.7416381835938 525.2712983393741 634.8172607421875 552.540310790546 C636.7252807617188 559.337674071796 638.5935668945312 566.0953034663272 640.7401123046875 572.8131684565616 C642.8866577148438 579.531033446796 645.2716674804688 586.1694306635928 647.6964721679688 592.8077973628116 C652.7846069335938 606.0050019526553 658.5881958007812 618.9240083003116 665.2265625 631.4454926753116 C672.02392578125 643.8874482417178 679.6163330078125 655.9318818354678 688.1627197265625 667.2211274409366 C692.654541015625 672.7464570307803 696.9873657226562 678.3115815424991 701.9959716796875 683.3201264643741 C704.4605102539062 685.8641938471866 706.8057861328125 688.4479951167178 709.4691162109375 690.8330659174991 C710.688720703125 691.9070405268741 711.88330078125 692.9893159174991 713.0834350585938 694.0609101557803 C717.083740234375 720.2072724604678 724.8848876953125 745.6856660151553 734.9299926757812 770.0223359370303 C735.85498046875 773.7347993159366 736.8992919921875 777.3190888667178 738.0433349609375 780.8266572260928 C729.4844360351562 767.2934541010928 720.7123413085938 753.9685029292178 711.8541259765625 740.7201508784366 C693.7278442382812 713.8088959956241 675.2437133789062 687.2952241206241 656.640380859375 660.9006928706241 L600.6316528320312 582.0750703120303 C582.0680541992188 555.6805695796085 563.4647216796875 529.5245942378116 545.775634765625 501.69909374953033 C547.564453125 509.72875683546783 549.750732421875 517.7186555171085 552.0165405273438 525.7085541987491 C554.560546875 533.5791901850772 557.5418701171875 541.2510651850772 560.4833984375 549.0422028803897 C563.4647216796875 556.7936066889835 567.0422973632812 564.1872224116397 570.4210815429688 571.7001313471866 C573.7999267578125 579.2527436518741 577.5762329101562 586.5668916010928 581.4320678710938 593.8015107417178 C588.9449462890625 608.5092744135928 597.4913330078125 622.5015229487491 605.958251953125 636.5733002924991 L619.354248046875 657.2039155268741 C623.8460693359375 664.0410126948428 628.6161499023438 670.7191743159366 633.3067016601562 677.4370087885928 C652.2280883789062 704.1494721674991 672.5009155273438 729.8682221674991 694.1253051757812 754.3944062495303 C712.1592407226562 774.7403535151553 730.851806640625 794.5099458003116 751.2063598632812 812.7911347651553 C753.5216674804688 817.5475434565616 755.963623046875 822.2353486323428 758.521484375 826.8599824214053 C760.2642211914062 830.0305146479678 762.0623779296875 833.1689423823428 763.912109375 836.2759980464053 C748.9218139648438 817.4862641596866 733.2243041992188 799.5455903315616 717.3397216796875 781.8621796870303 C696.5501098632812 758.8862275385928 675.4425048828125 736.3475922846866 653.9771118164062 714.2064179682803 C632.4719848632812 692.1050385737491 611.006591796875 670.1229218745303 589.3424682617188 648.2600068354678 C567.6782836914062 626.3176240229678 546.0936889648438 604.7329682612491 525.4630432128906 580.9222993159366 C528.2058410644531 588.2364472651553 531.1076354980469 595.7095307612491 534.5262145996094 602.8646821284366 C538.103759765625 609.9005708003116 541.8800964355469 616.8966645503116 545.8154296875 623.7735566401553 C549.9892578125 630.4516572260928 554.2028198242188 637.1298188471866 558.53564453125 643.7284516596866 C562.9479370117188 650.2475556635928 567.5988159179688 656.5679291987491 572.2496337890625 662.9280366206241 C591.1312255859375 688.0107392573428 611.642578125 711.7816743159366 633.38623046875 734.1215791010928 C655.1298828125 756.5409516596866 677.8673095703125 777.8870820307803 701.7177124023438 798.0009736323428 C724.4878540039062 817.0643281245303 747.9778442382812 835.3358735346866 773.38623046875 851.2745332026553 C778.7418823242188 859.2927216792178 784.4188232421875 867.0950898432803 790.3428955078125 874.6941499018741 C790.3428955078125 874.6941499018741 820.48046875 909.5129975581241 834.92236328125 922.7387055659366 C850.0276489257812 936.6116914057803 866.0471801757812 949.4909028315616 882.8219604492188 961.2571381831241 L890.93115234375 949.4909028315616 C874.4345703125 938.3607148432803 858.653564453125 926.1572846674991 843.7868041992188 912.9600190424991 C828.8802490234375 899.8025483393741 815.0072631835938 885.4923066401553 802.20751953125 870.2677583003116 C789.5270385742188 854.9637421870303 777.9198608398438 838.7454194331241 768.0616455078125 821.4936494135928 C763.0928344726562 812.9074677729678 758.5612182617188 804.0828217768741 754.5066528320312 795.0196503901553 C750.4918212890625 786.0360078120303 746.8347778320312 776.5753144526553 744.4099731445312 767.5121430659366 L744.2509765625 766.9556245112491 L744.1317138671875 766.6773652339053 C742.7987060546875 763.6182832026553 741.5029296875 760.5418061518741 740.24755859375 757.4486665034366 C742.9323120117188 752.0581635737491 745.0794677734375 746.7412690424991 747.2720336914062 741.5151948237491 C748.90185546875 738.0966157221866 750.412353515625 734.7178315424991 751.8433837890625 731.3390473628116 C753.2744140625 727.9602021479678 754.5066528320312 724.5814179682803 756.1762084960938 721.3218354487491 C757.7265014648438 718.0622529292178 759.197265625 714.8027314448428 760.5487670898438 711.5431489253116 C761.8605346679688 708.2438325190616 763.6493530273438 705.2227753901553 765.1598510742188 702.0427216792178 C767.982177734375 695.6031464839053 771.5199584960938 689.6802949214053 774.580810546875 683.4791840815616 C781.4179077148438 671.5142182612491 788.6525268554688 659.9069794917178 797.0797119140625 648.6575288081241 C805.5068359375 637.3285493159366 814.6892700195312 626.3971528315616 825.9784545898438 614.9886445307803 L825.9784545898438 614.9489106440616 C817.789794921875 614.9887055659366 809.919189453125 617.3737153315616 802.3665161132812 620.3947724604678 C798.70947265625 622.0643281245303 794.9331665039062 623.7338227534366 791.5145874023438 625.8803681635928 C789.725830078125 626.8741425776553 788.0165405273438 627.9871796870303 786.2675170898438 629.0604218745303 C784.6376953125 630.2529267573428 782.9682006835938 631.4056977534366 781.3384399414062 632.6777314448428 C768.3399047851562 642.5756806635928 757.64697265625 655.4151582026553 749.5775756835938 669.5664033198428 L744.2509765625 680.5375947260928 C742.4622192382812 684.1946992182803 741.3094482421875 688.0902680659366 739.9976806640625 691.9063081049991 C737.2548828125 699.4987153315616 735.7443237304688 707.4091157221866 734.5120849609375 715.3194550776553 C733.7567749023438 719.2150239253116 733.6375732421875 723.2298554682803 733.518310546875 727.2446870112491 C733.3990478515625 731.2197846674991 733.3990478515625 735.1948212885928 733.4387817382812 739.1301850581241 C733.4451904296875 739.2102631831241 733.45166015625 739.2904023432803 733.4581909179688 739.3704804682803 C730.1508178710938 729.7751435542178 727.2760009765625 720.0410737299991 724.9253540039062 710.1918916010928 C727.177978515625 690.4893159174991 735.538818359375 673.2828950190616 745.12548828125 656.7269257807803 C751.2470703125 646.3122529292178 758.1239624023438 636.2553071284366 765.4778442382812 626.5163544917178 C769.1348876953125 621.6668061518741 772.9112548828125 616.8171967768741 776.7670288085938 612.3253754878116 C780.3048706054688 608.1515473628116 784.6376953125 603.7391938471866 788.8512573242188 599.7641572260928 C805.9838256835938 583.6650971674991 826.534912109375 571.3821381831241 849.4711303710938 563.2332429194522 C872.447021484375 555.2036103510928 897.3707275390625 550.6322602534366 923.4869384765625 549.9167451167178 L923.5266723632812 549.876980712421 C917.44482421875 547.2932099604678 911.0449829101562 545.504422118671 904.5656127929688 544.1131257319522 C898.0862426757812 542.6821259760928 891.4478759765625 541.7280854487491 884.769775390625 541.2113312983585 C880.5917358398438 540.8756074214053 876.386474609375 540.7071198725772 872.1673583984375 540.7071198725772 C862.89892578125 540.7071198725772 853.5636596679688 541.5201386714053 844.3035278320312 543.1591157221866 C817.3525390625 547.8496979975772 790.997802734375 560.212185790546 769.9696655273438 578.8155183100772 C764.6828002929688 583.5458344721866 759.9127197265625 588.2761811518741 755.0233764648438 593.8413056635928 C750.5713500976562 599.1679047846866 746.4769897460938 604.5739716792178 742.6211547851562 610.1788300776553 C735.02880859375 621.4282807612491 728.3904418945312 633.3932465815616 723.3023071289062 646.1929902339053 C721.2552490234375 651.4662446284366 719.4578247070312 656.8878754878116 718.0184326171875 662.4218110346866 C717.4699096679688 650.4627656245303 717.8749389648438 638.4571503901553 719.2933959960938 626.5776948237491 C724.1869506835938 620.9244965815616 728.61279296875 615.1608247065616 733.0809936523438 609.5030488276553 C736.3008422851562 605.7267426753116 739.441162109375 601.9504365229678 742.501953125 598.1343354487491 C744.05224609375 596.2660493159366 745.5230102539062 594.3182954096866 746.9937744140625 592.4102753901553 C748.3850708007812 590.4227265620303 750.2135620117188 588.7531708979678 751.684326171875 586.8848847651553 C754.8644409179688 583.2278413081241 757.9649658203125 579.5707673335147 760.9462890625 575.8342255854678 C762.4170532226562 573.9261750483585 764.007080078125 572.1771516108585 765.6368408203125 570.4281281733585 L770.4069213867188 565.1412629389835 C776.4888305664062 557.8271455073428 783.2463989257812 551.2682770991397 789.68603515625 544.3516511225772 C803.0422973632812 531.0749177241397 816.8357543945312 518.3944367671085 831.7423095703125 506.66796581984283 C846.7283325195312 494.90176098585846 862.3900756835938 483.8908051753116 880.3176879882812 473.75439160109283 L880.3971557617188 473.71462719679596 C878.2738037109375 473.5120209956241 876.1488037109375 473.41845410109283 874.0252075195312 473.41845410109283 C865.7327880859375 473.41845410109283 857.46142578125 474.84499829054596 849.3916015625 476.77541821242096 L841.8389892578125 478.8424653315616 C839.3346557617188 479.55798046828033 836.9496459960938 480.55175488234283 834.4453735351562 481.42626660109283 C829.4765014648438 483.1355561518741 824.7461547851562 485.3218354487491 820.0158081054688 487.5876130366397 C801.1740112304688 496.77004711867096 784.200439453125 509.53002636671783 769.4131469726562 524.2377900385928 L758.8792114257812 535.8052338862491 C757.1301879882812 537.7530183100772 755.460693359375 539.7405671382022 753.9501342773438 541.8473481440616 C752.3998413085938 543.9143952632022 750.809814453125 545.9814118647647 749.29931640625 548.127957274921 C742.9789428710938 556.3961152339053 737.8511352539062 565.3797883296085 732.9617919921875 574.482693603046 C732.5993041992188 575.1072358393741 732.2485961914062 575.738064696796 731.907958984375 576.3742646479678 C741.992919921875 550.6478242182803 757.4310913085938 527.0422944331241 776.2503051757812 506.62820141554596 C786.8240356445312 495.1799897456241 798.4312133789062 484.6460541987491 810.8334350585938 475.14562695265533 C823.1290283203125 465.7663239741397 836.1669311523438 457.1683930659366 849.9472045898438 450.2427644038272 C861.3452758789062 447.3171967768741 872.7138671875 444.09887402296783 884.1734619140625 440.8805512690616 C899.1992797851562 436.38869946242096 913.8672485351562 430.6248444819522 927.3427734375 422.6349458003116 C940.8977661132812 414.80407421828033 953.896240234375 405.8601655268741 965.7816772460938 395.48522656203033 C971.664794921875 390.2381257319522 977.388916015625 384.7525300288272 982.5962524414062 378.7501801753116 C987.7638549804688 372.7875642085147 992.732666015625 366.4274567866397 996.3499755859375 359.2723054194522 C989.47314453125 363.32690136671783 982.8347778320312 367.1032075190616 976.1168823242188 370.8397797846866 L956.2415161132812 382.0097321772647 L916.76904296875 403.9918793940616 C913.4697875976562 405.8204011225772 910.210205078125 407.7284516596866 906.9904174804688 409.6762360835147 C903.7308349609375 411.5445222163272 900.4712524414062 413.49230664015533 897.25146484375 415.5195893549991 C890.891357421875 419.6536530757022 884.4517211914062 423.7479829096866 878.171142578125 428.20007031203033 C871.81103515625 432.5328950190616 865.3713989257812 436.7862214350772 858.852294921875 440.99978344679596 C854.2171630859375 443.9956635737491 849.3810424804688 446.5293549799991 844.6441040039062 449.3438081049991 C836.5211181640625 453.4670075678897 828.7210693359375 458.08898632765533 821.154296875 463.0827302241397 C832.6096801757812 446.67028515578033 844.34375 432.4927338862491 856.9044799804688 418.5406159663272 C869.7042236328125 404.23037426710846 883.020751953125 390.43688671828033 896.416748046875 376.5241364741397 C909.8524780273438 362.65112011671783 923.407470703125 348.7383698725772 936.8829345703125 334.3883637690616 C950.2789306640625 319.95885937453033 963.7146606445312 305.4100922846866 976.315673828125 288.99303906203033 L976.2759399414062 288.9930543208194 C956.6390380859375 295.7506684565616 939.0294799804688 306.0063599848819 922.29443359375 317.3750581049991 C905.638916015625 328.9027680659366 890.0565795898438 341.98074047804596 875.9053344726562 356.6487702632022 C861.7540893554688 371.2770356440616 848.9146118164062 387.4953278803897 838.6192016601562 405.5024079585147 C833.4913330078125 414.4860505366397 829.0392456054688 423.9467438960147 825.7399291992188 433.88439648390533 C822.5598754882812 443.5411042475772 820.2499389648438 453.5761384272647 820.1762084960938 463.7311677241397 C816.235107421875 466.35561840773346 812.3566284179688 469.07995312453033 808.5278930664062 471.8860749507022 C801.24365234375 477.26415722609283 794.2184448242188 482.9790620112491 787.4893798828125 489.03078930617096 C792.0843505859375 481.4883698725772 795.9856567382812 473.8239106440616 799.9417114257812 466.24148266554596 C802.3665161132812 461.67016308546783 804.7117919921875 457.0988129878116 806.9776000976562 452.52749340773346 C808.13037109375 450.26171581984283 809.20361328125 447.91640942335846 810.2769165039062 445.65063183546783 C811.4296875 443.3848237299991 812.6221923828125 441.11904614210846 813.6954956054688 438.81350414992096 C815.9612426757812 434.2421540522647 818.1475830078125 429.6708344721866 820.214599609375 425.09948437453033 L826.7734375 411.46499340773346 C828.9199829101562 406.89367382765533 830.8677978515625 402.28258984328033 833.17333984375 397.79076855421783 L839.4937133789062 384.1165131831241 L865.013671875 329.4592866206241 C873.56005859375 311.0944489741397 882.0269775390625 292.72961132765533 890.7323608398438 273.3312653803897 L890.7720947265625 273.2915162348819 C881.7089233398438 279.05537121535065 873.8383178710938 286.2900056147647 866.3651733398438 293.80288403273346 L860.8795776367188 299.5667390132022 C859.0908203125 301.51452343703033 857.4212646484375 303.5418061518741 855.7119750976562 305.5293549799991 C852.2139282226562 309.50442211867096 849.0338745117188 313.7179993891788 845.8538208007812 317.8918275141788 C833.2528076171875 334.78588574171783 822.639404296875 353.0314606928897 813.6557006835938 371.99255078078033 L807.3751220703125 386.4220551753116 C805.3478393554688 391.27163403273346 803.519287109375 396.1609772944522 801.770263671875 401.1298188471866 C798.1529541015625 410.9880036616397 795.171630859375 421.0051850581241 792.6276245117188 431.1813630366397 C791.236328125 436.2297028803897 790.123291015625 441.35754101515533 789.2090454101562 446.52514355421783 C788.2152709960938 451.6927155757022 787.3804931640625 456.8603181147647 786.5855102539062 462.0279206538272 C785.3168334960938 471.84109204054596 784.5736083984375 481.7243317866397 784.552978515625 491.71047680617096 C780.5326538085938 495.43337719679596 776.6228637695312 499.27966015578033 772.8317260742188 503.24938671828033 C767.7117919921875 508.6109284663272 762.8155517578125 514.2092255854678 758.1817016601562 520.0259980464053 C764.2076416015625 496.75341503859283 768.8464965820312 474.1326264643741 775.6143188476562 451.9312409663272 C778.71484375 439.5290192866397 783.0476684570312 427.48452465773346 786.5457763671875 415.24133007765533 L792.7468872070312 397.19448559523346 C793.7803955078125 394.1734284663272 794.6549072265625 391.1126374507022 795.7679443359375 388.1710786128116 L799.1864624023438 379.2669343257022 C807.8919067382812 355.37673657179596 817.5513305664062 331.80456249953033 828.1647338867188 308.391400268085 C838.634521484375 284.9534272456241 849.8164672851562 261.7528657221866 861.5921630859375 237.842312743671 Z "/>            	    </defs>            	    <g transform="rotate(297.256677357145 760.9065093994141 599.4660081172061)" style="mix-blend-mode:multiply">            	      <use xmlns:xlink="http://www.w3.org/1999/xlink" xlink:href="#s-Path_1-d1224" fill="#DDF3F4" fill-opacity="1.0"/>            	    </g>            	  </g>            	</svg>