<?xml version="1.0" encoding="UTF-8"?>
<svg xmlns="http://www.w3.org/2000/svg" width="26.0" height="20.07556048451169" viewBox="1003.0 3029.0 26.0 20.07556048451169" preserveAspectRatio="none">
  <g>
    <defs>
      <path id="s-Path_11-d1224" d="M1009.1239671471915 3029.0 C1007.3333335041015 3029.0 1005.854781646456 3029.6446282286106 1004.6883115742551 3030.933884685832 C1003.5627705247517 3032.182212217937 1003.0 3033.8654077253436 1003.0 3035.983471208051 C1003.0 3039.1861476933823 1004.2892562132666 3042.0972064654998 1006.8677686397999 3044.7166475244035 C1008.1979536318097 3046.0877606608747 1010.1318381224777 3047.494687094731 1012.6694221118041 3048.9374268259726 L1012.9917359333641 3048.9374268259726 L1013.6056674681378 3047.7709559731175 C1011.774104899932 3046.5226288313393 1010.4029909828065 3045.43801660937 1009.4923257167612 3044.517119307209 C1007.8756394199225 3042.9004334006977 1007.0672962715032 3041.3656045637636 1007.0672962715032 3039.9126327964063 L1007.37426203889 3038.9149940523994 C1007.5789058838146 3038.7103502074747 1007.8909878644228 3038.6080282850126 1008.3105079807144 3038.6080282850126 L1008.9858323176711 3038.669421672686 C1009.2007085890382 3038.710350597802 1009.4104686471841 3038.73081506036 1009.6151124921087 3038.73081506036 C1010.822510708771 3038.73081506036 1011.8406139153362 3038.3112953343953 1012.6694221118041 3037.472255882466 C1013.5800865971951 3036.643447685998 1014.0354188398906 3035.523022556971 1014.0354188398906 3034.110980495384 C1014.0354188398906 3032.5761516584494 1013.5800865971951 3031.348288588902 1012.6694221118041 3030.4273912867416 C1011.758756845759 3029.4757970955807 1010.5769385242214 3029.0 1009.1239671471915 3029.0 M1029.0 3034.110980495384 C1029.0 3032.5761516584494 1028.5446677573045 3031.348288588902 1027.6340032719136 3030.4273912867416 C1026.7233372252142 3029.4757970955807 1025.5364030807825 3029.0 1024.0732008386187 3029.0 C1022.2927984509897 3029.0 1020.8193626114019 3029.6446282286106 1019.6528933198553 3030.933884685832 C1018.5273521727701 3032.182212217937 1017.9645815992276 3033.8654077253436 1017.9645815992276 3035.983471208051 C1017.9645815992276 3039.1861476933823 1019.2538376661215 3042.0972064654998 1021.8323497999094 3044.7166475244035 C1023.1625347919191 3046.0877606608747 1025.0964192825872 3047.494687094731 1027.6340032719136 3048.9374268259726 L1027.9563159224922 3048.9374268259726 L1028.5702474572659 3047.7709559731175 C1026.7386856697144 3046.5226288313393 1025.3675725332432 3045.43801660937 1024.4569080478523 3044.517119307209 C1022.8299885439167 3042.9004334006977 1022.0165287919489 3041.3656045637636 1022.0165287919489 3039.9126327964063 L1022.3388437844903 3038.9149940523994 C1022.5434876294148 3038.7103502074747 1022.8555690245323 3038.6080282850126 1023.2750879698425 3038.6080282850126 L1023.9504140632713 3038.669421672686 C1024.165289163657 3038.710350597802 1024.375048636312 3038.73081506036 1024.5796924812366 3038.73081506036 C1025.7870914785533 3038.73081506036 1026.8051950754457 3038.3112953343953 1027.6340032719136 3037.472255882466 C1028.5446677573045 3036.643447685998 1029.0 3035.523022556971 1029.0 3034.110980495384 M1019.3305783273139 3048.9374268259726 L1019.0082645057539 3048.9374268259726 L1019.0850059476007 3049.0755604845117 C1019.1671034587072 3049.0294768989497 1019.2489609186116 3048.983432346103 1019.3305783273139 3048.9374268259726 M1004.3659977526952 3048.9374268259726 L1004.0436836383899 3048.9374268259726 L1004.1204250802366 3049.0755604845117 C1004.2025223961795 3049.0294768989497 1004.2843799536656 3048.983432346103 1004.3659977526952 3048.9374268259726 Z "></path>
    </defs>
    <g transform="rotate(180.0 1016.0 3039.037780242256)" style="mix-blend-mode:normal">
      <use xmlns:xlink="http://www.w3.org/1999/xlink" xlink:href="#s-Path_11-d1224" fill="#000000" fill-opacity="1.0"></use>
    </g>
  </g>
</svg>
