<?xml version="1.0" encoding="UTF-8"?>
<svg xmlns="http://www.w3.org/2000/svg" width="26.0" height="20.07556048451169" viewBox="692.0 2943.0 26.0 20.07556048451169" preserveAspectRatio="none">
  <g>
    <defs>
      <path id="s-Path_9-d1224" d="M698.1239671471915 2943.0 C696.3333335041015 2943.0 694.854781646456 2943.6446282286106 693.6883115742551 2944.933884685832 C692.5627705247517 2946.182212217937 692.0 2947.8654077253436 692.0 2949.983471208051 C692.0 2953.1861476933823 693.2892562132666 2956.0972064654998 695.8677686397999 2958.7166475244035 C697.1979536318097 2960.0877606608747 699.1318381224777 2961.494687094731 701.6694221118041 2962.9374268259726 L701.9917359333641 2962.9374268259726 L702.6056674681378 2961.7709559731175 C700.774104899932 2960.5226288313393 699.4029909828065 2959.43801660937 698.4923257167612 2958.517119307209 C696.8756394199225 2956.9004334006977 696.0672962715032 2955.3656045637636 696.0672962715032 2953.9126327964063 L696.37426203889 2952.9149940523994 C696.5789058838146 2952.7103502074747 696.8909878644228 2952.6080282850126 697.3105079807144 2952.6080282850126 L697.9858323176711 2952.669421672686 C698.2007085890382 2952.710350597802 698.4104686471841 2952.73081506036 698.6151124921087 2952.73081506036 C699.822510708771 2952.73081506036 700.8406139153362 2952.3112953343953 701.6694221118041 2951.472255882466 C702.5800865971951 2950.643447685998 703.0354188398906 2949.523022556971 703.0354188398906 2948.110980495384 C703.0354188398906 2946.5761516584494 702.5800865971951 2945.348288588902 701.6694221118041 2944.4273912867416 C700.758756845759 2943.4757970955807 699.5769385242214 2943.0 698.1239671471915 2943.0 M718.0 2948.110980495384 C718.0 2946.5761516584494 717.5446677573045 2945.348288588902 716.6340032719137 2944.4273912867416 C715.7233372252141 2943.4757970955807 714.5364030807824 2943.0 713.0732008386186 2943.0 C711.2927984509897 2943.0 709.8193626114019 2943.6446282286106 708.6528933198553 2944.933884685832 C707.5273521727701 2946.182212217937 706.9645815992276 2947.8654077253436 706.9645815992276 2949.983471208051 C706.9645815992276 2953.1861476933823 708.2538376661215 2956.0972064654998 710.8323497999094 2958.7166475244035 C712.1625347919191 2960.0877606608747 714.0964192825872 2961.494687094731 716.6340032719137 2962.9374268259726 L716.9563159224921 2962.9374268259726 L717.5702474572659 2961.7709559731175 C715.7386856697143 2960.5226288313393 714.3675725332431 2959.43801660937 713.4569080478523 2958.517119307209 C711.8299885439167 2956.9004334006977 711.0165287919489 2955.3656045637636 711.0165287919489 2953.9126327964063 L711.3388437844903 2952.9149940523994 C711.5434876294148 2952.7103502074747 711.8555690245323 2952.6080282850126 712.2750879698425 2952.6080282850126 L712.9504140632713 2952.669421672686 C713.1652891636569 2952.710350597802 713.375048636312 2952.73081506036 713.5796924812366 2952.73081506036 C714.7870914785533 2952.73081506036 715.8051950754457 2952.3112953343953 716.6340032719137 2951.472255882466 C717.5446677573045 2950.643447685998 718.0 2949.523022556971 718.0 2948.110980495384 M708.3305783273139 2962.9374268259726 L708.0082645057539 2962.9374268259726 L708.0850059476007 2963.0755604845117 C708.1671034587072 2963.0294768989497 708.2489609186116 2962.983432346103 708.3305783273139 2962.9374268259726 M693.3659977526952 2962.9374268259726 L693.0436836383899 2962.9374268259726 L693.1204250802366 2963.0755604845117 C693.2025223961795 2963.0294768989497 693.2843799536656 2962.983432346103 693.3659977526952 2962.9374268259726 Z "></path>
    </defs>
    <g style="mix-blend-mode:normal">
      <use xmlns:xlink="http://www.w3.org/1999/xlink" xlink:href="#s-Path_9-d1224" fill="#000000" fill-opacity="1.0"></use>
    </g>
  </g>
</svg>
