<?xml version="1.0" encoding="UTF-8"?>
<svg xmlns="http://www.w3.org/2000/svg" width="19.089719299930355" height="18.0" viewBox="893.4247247163207 461.3624653985289 19.089719299930355 18.0" preserveAspectRatio="none">
  <g>
    <defs>
      <path id="s-Path_8-13438" d="M902.1519975381727 477.7261017444317 C902.1519975381727 478.6315562814923 901.4210884211361 479.3624653985289 900.5156338840754 479.3624653985289 C899.6101793470149 479.3624653985289 898.8792702299783 478.6315562814923 898.8792702299783 477.7261017444317 C898.8792702299783 476.82064720737105 899.6101793470149 476.08973809033444 900.5156338840754 476.08973809033444 C901.4210884211361 476.08973809033444 902.1519975381727 476.82064720737105 902.1519975381727 477.7261017444317 Z M907.6065430518303 476.08973809033444 C906.7010885147696 476.08973809033444 905.970179397733 476.82064720737105 905.970179397733 477.7261017444317 C905.970179397733 478.6315562814923 906.7010885147696 479.3624653985289 907.6065430518303 479.3624653985289 C908.5119975888908 479.3624653985289 909.2429067059275 478.6315562814923 909.2429067059275 477.7261017444317 C909.2429067059275 476.82064720737105 908.5119975888908 476.08973809033444 907.6065430518303 476.08973809033444 Z M912.4938158528748 465.649738310113 L910.3119976474118 474.377011131965 C910.224724921144 474.7370111501715 909.8974521935756 474.9988293127192 909.5156339816103 474.9988293127192 L898.6065429542954 474.9988293127192 C898.2138156617065 474.9988293127192 897.8756338372588 474.7151929564127 897.7992702078703 474.3224656638238 L895.7374520193133 462.99882905262615 L894.2429065433694 462.99882905262615 C893.7956338151508 462.99882905262615 893.4247247163207 462.62791995379604 893.4247247163207 462.18064722557756 C893.4247247163207 461.733374497359 893.7956338151508 461.3624653985289 894.2429065433694 461.3624653985289 L896.4247247488323 461.3624653985289 C896.8174520414212 461.3624653985289 897.1556338658689 461.6461017548354 897.2319974952574 462.0388290474243 L897.7010884172347 464.63519283676993 L911.6974521220501 464.63519283676993 C911.94836122023 464.63519283676993 912.1883612052746 464.75519283742017 912.3410884640515 464.9515564674588 C912.4938157390841 465.14792011375323 912.5483611909696 465.4097382763009 912.4938157390841 465.6497382776014 Z M910.6501794068363 466.27155649086717 L897.995633919188 466.27155649086717 L899.2829066031908 473.3624656586219 L908.8719975745857 473.3624656586219 L910.6501794068363 466.27155649086717 Z "></path>
    </defs>
    <g style="mix-blend-mode:normal">
      <use xmlns:xlink="http://www.w3.org/1999/xlink" xlink:href="#s-Path_8-13438" fill="#6C757D" fill-opacity="1.0"></use>
    </g>
  </g>
</svg>
