<?xml version="1.0" encoding="UTF-8"?>
<svg xmlns="http://www.w3.org/2000/svg" width="11.417247271419352" height="11.417253815870193" viewBox="196.64285278320312 613.6931610107422 11.417247271419352 11.417253815870193" preserveAspectRatio="none">
  <g>
    <defs>
      <path id="s-Path_4-d1224" d="M198.82009932983 613.6931685088673 C198.40866150206384 613.6913284983644 198.0685852299813 614.0283765707496 198.0667452194785 614.4398143985158 C198.06489386397786 614.8537890385728 198.40612468977292 615.195019864368 198.82009932983 615.1931685088673 L205.5000991581686 615.1931685088673 L196.88009927260953 623.8131683944264 C196.57908638280557 624.0936542698083 196.562195202357 624.572155447402 196.84268107773897 624.8731683372059 C197.12316695312097 625.1741812270099 197.6016681307146 625.1910724074585 197.90268102051851 624.9105865320764 C197.91559002133775 624.8985578365696 197.92807051988223 624.8860773380252 197.94009921538907 624.8731683372059 L206.56010005462247 616.2531679748097 L206.56010005462247 622.9331678031483 C206.56194006512527 623.3446056309144 206.9020163372078 623.6816537032996 207.31345416497396 623.6798136927968 C207.7223579020113 623.6779850151206 208.05827137694624 623.3420715401857 208.06010005462247 622.9331678031483 L208.06010005462247 614.4431685088673 C208.05957323147217 614.3434772722113 208.03917469441888 614.2448843437536 208.00010005596357 614.153168517212 C207.88931695733308 613.8929348086062 207.64207076050212 613.715226813627 207.360099291683 613.6931685088673 Z "></path>
    </defs>
    <g style="mix-blend-mode:normal">
      <use xmlns:xlink="http://www.w3.org/1999/xlink" xlink:href="#s-Path_4-d1224" fill="#FFFFFF" fill-opacity="1.0"></use>
    </g>
  </g>
</svg>
