<?xml version="1.0" encoding="UTF-8"?>
<svg xmlns="http://www.w3.org/2000/svg" width="637.9462019581481" height="598.256103515625" viewBox="417.00000000000045 3331.8719482421893 637.9462019581481 598.256103515625" preserveAspectRatio="none">
  <g>
    <defs>
      <path id="s-Union_1-d1224" d="M694.9882596023992 3332.876170558231 C695.0033214888817 3332.9265699476136 695.018383375364 3332.9766796853337 695.0334452618463 3333.027079074717 C695.0359073009829 3332.994348436784 695.0385141659508 3332.961617798852 695.0411210309189 3332.9288871609187 L694.9882596023992 3332.876170558231 Z M526.9268612778192 3379.3835105439766 C526.9888467337271 3379.438254708307 527.050832189635 3379.492998872637 527.1128176455431 3379.5477430369665 C527.0860248667043 3379.492998872637 527.0592320878657 3379.438254708307 527.0325841348586 3379.3835105439766 Z M827.5876048110381 3386.6239331670204 C827.5760187445132 3386.7229940358075 827.5642878521569 3386.821765252932 827.5525569598005 3386.9205364700565 C827.5994805292262 3386.8394340043824 827.6464040986518 3386.7580418870457 827.6933276680775 3386.6769394213716 L827.5876048110381 3386.6239331670204 Z M445.9614732534262 3398.356563433412 L445.9614732534262 3398.4622862904507 C446.02164838643967 3398.496754838362 446.0818235194531 3398.531223386274 446.1419262395507 3398.565981585848 C446.08175110653724 3398.496175535036 446.0215759735238 3398.426369484224 445.9614732534262 3398.356563433412 Z M928.7416413420704 3448.933509286012 C928.6968901601181 3449.019535829959 928.6521389781658 3449.105272722243 928.6073877962137 3449.19129926619 C928.6696629037847 3449.140610225144 928.7319380113559 3449.089921184098 928.7943579447585 3449.039232143051 L928.7416413420704 3448.933509286012 Z M992.9536495844429 3499.9333465667696 C992.9410497370973 3499.9466705432733 992.9283050639199 3499.959994519777 992.9157052165742 3499.9733184962797 C992.9459738153703 3499.959994519777 992.9762424141666 3499.9466705432733 993.0065110129626 3499.9333465667696 Z M691.170505856629 3598.1661012493914 C692.6571430175991 3599.548318985806 694.1552214192625 3600.9215575206645 695.6651755391138 3602.285237550639 L695.2585046040915 3602.75852836818 C693.9029348206839 3601.2187401270266 692.5401237456981 3599.6882207390936 691.170505856629 3598.1661012493914 Z M691.7612504235649 3602.851796203705 C692.5166619609852 3603.298728719901 693.2735217567213 3603.743633674455 694.0316849849412 3604.187090370694 L693.9253828245758 3604.310771630847 C693.205019138393 3603.822418926824 692.483496845558 3603.3360937844436 691.7612504235649 3602.851796203705 Z M692.0451090534239 3614.808616857352 C696.2084172332977 3615.070461960814 700.3828770022021 3615.28074906824 704.5697917926204 3615.433974798031 C705.3388169582076 3616.1386972944056 706.1076972979631 3616.8437094424426 706.8761431602238 3617.549011242143 C701.9328030515642 3616.5502923077 696.9893181170728 3615.641075737163 692.0451090534239 3614.808616857352 Z M709.1872737802687 3619.672447584485 C710.9076598333777 3621.2545249684536 712.6264528023396 3622.8383402624013 714.3436526871542 3624.423893466327 C707.3230756764201 3624.1197592200497 700.3258156245672 3623.9844918933723 693.3459346725015 3623.9844918933723 C684.4100360393777 3623.9844918933723 675.5029577467344 3624.2063650673226 666.6126792505522 3624.5811743194017 C680.7843213462568 3623.493242672718 694.9688529409702 3621.955192341544 709.1872737802687 3619.672447584485 Z M715.6957466506044 3625.672871437706 C716.8513119606268 3626.7411067712974 718.0061531414915 3627.809921408215 719.1604150190301 3628.879605000122 C710.6071462328894 3629.765939089273 702.120062851772 3630.8790704306484 693.6845374666902 3632.1703375448433 C701.0422690132978 3630.1728996759584 708.3808835501391 3628.019918863978 715.6957466506044 3625.672871437706 Z M1034.4934635476586 3699.1230298236696 C1034.4133748628055 3699.132298676889 1034.3332861779525 3699.141857181772 1034.2531974930996 3699.1511260349926 C1034.3332861779525 3699.1769050330104 1034.4133748628055 3699.2029736826908 1034.4934635476586 3699.2287526807086 L1034.4934635476586 3699.1230298236696 Z M509.1503594087385 3816.58344120761 C509.03348496266904 3816.6442680568653 508.91646569076806 3816.7050949061213 508.7995912446986 3816.7659217553764 L508.905314101738 3816.8716446124163 C508.98699587073816 3816.7754802602594 509.0685328139068 3816.679605559766 509.1503594087385 3816.58344120761 Z M553.0341794557633 3861.75114225142 C553.0166555301444 3861.765335182913 552.9992764303572 3861.7795281144063 552.9817525047383 3861.7937210458986 L552.9817525047383 3861.846437648587 C552.9992764303572 3861.8145759656436 553.0166555301444 3861.7827142827 553.0341794557633 3861.75114225142 Z M628.503644411177 3331.8719482421893 L628.4507829826573 3331.924664844877 C631.5688831361581 3357.7152489291984 636.7481445244302 3382.871785522947 642.7201825146653 3407.8165867509533 C648.5336362193414 3432.761677630623 655.4568902712667 3457.3893102875118 662.9614752110767 3481.858793136337 C670.5189215794062 3506.2752697308106 678.7634216926594 3530.533017213893 688.0121441219542 3554.4211691748333 C695.9596064546765 3575.2317722151092 704.5060684267339 3595.842515607832 714.5193264208374 3616.010671259306 C710.5035957633236 3612.5739542763713 706.4797548592423 3609.1462164949935 702.4478037085939 3605.727747566836 C695.6766167798071 3582.9619958004914 687.2717944710162 3561.051585395343 678.2349522332947 3539.4117096435502 C668.5634832016742 3515.946738762431 657.9407981083637 3493.0100925148436 646.6839206986488 3470.3376085840237 C635.4268984631024 3447.7178412558915 623.5358287369834 3425.3625258961893 610.6933981233426 3403.4828185673323 C597.956690366741 3381.5503946357876 584.4800674366961 3359.9878558780483 569.0480061289193 3339.4292497846873 L569.0480061289193 3339.4822560390385 C576.076983037884 3364.2159012046295 585.1142597531002 3387.9453240541798 594.8913068159284 3411.3575783326114 C604.509914419029 3434.769832611043 615.185605766691 3457.7594851129816 626.3896217478862 3480.431679392138 C632.7228553620334 3493.1575252113726 639.2568175787239 3505.799951351628 646.0478456464343 3518.320723793373 C638.2463677519252 3507.2102652993663 630.2115754427718 3496.2883700380507 622.0031369615772 3485.5052179233708 C607.6281593983615 3466.6908941453266 592.7245675499494 3448.299461795439 576.9753376710546 3430.541787284462 C561.3329892558518 3412.792802323377 545.113075424385 3395.4635226221562 527.1128176455431 3379.5477430369665 C537.6654070363784 3401.1545984991635 550.054967274729 3421.449042275758 563.0231067101645 3441.217478632124 C575.9183987523252 3461.1417475832486 589.7120454276562 3480.3789627894503 604.034306388184 3499.2462928218456 C618.3565673487115 3518.0606165998897 633.2601591971234 3536.45233860144 649.0092442501866 3554.2097234607545 C651.0608469800748 3556.5454744721646 653.1241806023195 3558.8731152370074 655.2018519818885 3561.1903285419785 C650.6188385421517 3556.7766164993354 645.9967221278935 3552.4106969811082 641.3460750248178 3548.0792460107923 C621.4218060736926 3529.317638835436 600.7576219491241 3511.401524864731 579.6706912222301 3494.0140251792227 C558.5837604953358 3476.6795317480646 537.0740831661162 3459.8206463477527 514.8243458376216 3443.8072541520914 C492.7358720725699 3427.7811172832526 470.12146330020573 3412.33370443733 446.1419262395507 3398.565981585848 C464.21828999287777 3419.5188035927176 483.65681310494847 3438.7426948224147 503.62032985642645 3457.336593684824 C523.5974602360714 3476.150917462868 544.2614995348083 3494.0140251792227 565.2957136590144 3511.4545311190823 C586.3826443859084 3528.8420308045906 607.892321715128 3545.7009162049035 630.141914217791 3561.7143084005647 C641.1330362265921 3569.715066639301 652.2411775072942 3577.559412979953 663.5894400167238 3585.111790444177 C654.8791800291715 3579.933398010895 646.0792728518829 3574.9432791586405 637.2237525552755 3570.064676196689 C614.4985520217672 3557.3805402169437 591.2447372030626 3545.648199602215 567.7267600675914 3534.5496168263962 C544.1559215036007 3523.45132370224 520.3736372255312 3512.987078068657 496.062883488097 3503.5270547511154 C471.8577801947863 3493.961308576534 447.2827193147539 3485.0826161468767 421.7564423730312 3478.2120786976393 L421.7564423730312 3478.2650849519905 C443.26619211516663 3493.5914234027287 465.72723033190823 3506.9093172213825 488.55822613537134 3519.4874406924255 C511.336360510315 3532.2242932748586 534.5373139004998 3543.903917286899 558.0552910359711 3555.055216665406 C581.5732681714424 3566.1537994412247 605.3555524495116 3576.6177554231454 629.6663061869458 3586.0780683923504 C652.1402339026963 3594.9402506772094 674.8864341817807 3603.212991827617 698.409045743862 3609.803146466953 C699.3950200051268 3610.7019355776183 700.3804149630655 3611.601593643273 701.3653754435095 3612.5015413605906 C680.4293532331017 3604.0613815488996 659.1066460524269 3597.2421124440343 637.699505411952 3591.098600669232 C613.7586368483239 3584.069623760267 589.6064673964486 3578.1505920243826 565.2957136590144 3572.865607779072 C540.9848150957487 3567.633340136448 516.5156218985871 3562.982693033373 491.83483816151534 3559.494707706066 C467.2069882658791 3555.847993267369 442.3677650690802 3552.994055430635 417.05286142852015 3552.307001685711 L417.00000000000045 3552.307001685711 C440.3066038343088 3562.1371998287214 464.141749540898 3569.800224228259 488.08254569161045 3576.7234782801843 C512.0234142552388 3583.7524551891493 536.1755837071139 3589.671776576696 560.4863374445481 3595.0094774246954 C581.8597336662692 3599.6094354867246 603.3557973673221 3603.71901328309 625.0101557022708 3607.0514556673006 C606.1425360182122 3605.6023283967043 587.2678198684071 3604.7640764836315 568.3609523839955 3604.3110612825103 C559.5778450031682 3604.119601533187 550.794737622341 3604.011561462842 542.011485415682 3604.011561462842 C526.5367004875948 3604.011561462842 511.0619155595075 3604.347557392063 495.5871306314202 3605.156554487161 C471.3292383225057 3606.2664996602416 447.0713460135912 3608.1689317836226 422.7077308476373 3612.291254253165 L422.7077308476373 3612.344260507516 C446.8599727124283 3617.5762384984764 471.01214216430367 3620.588615794938 495.21724545761435 3622.8082164894367 C519.4222763380094 3625.1865462953256 543.6273072184042 3626.402214325445 567.8851995273187 3626.98354521333 C576.6667138239989 3627.17471531099 585.4480832948475 3627.2830450329975 594.2294527656961 3627.2830450329975 C607.7697990616277 3627.2830450329975 621.3101453575593 3627.0258343561454 634.8503468276595 3626.419593425233 C613.0579694752334 3627.9611195763646 591.3821769172137 3630.3464010221687 569.7879213023627 3633.2197455203313 C545.1071375652909 3636.5492913879107 520.5849381137782 3640.512884746063 496.16846151930486 3645.5864232772956 C471.75205733774715 3650.501522348801 447.38844217179326 3656.2621146249576 423.3947845925611 3664.242307595613 C432.0266938052391 3664.7118329415325 440.6215276050375 3664.9160373640325 449.18993069057615 3664.9160373640325 C465.6977582751856 3664.9160373640325 482.1072491201653 3664.1580189616443 498.4939298966742 3663.079645819844 C523.3860145219928 3661.547098870269 548.1195148617526 3658.904606747613 572.7474371703047 3655.627777482722 C583.1676557510934 3654.1997947835343 593.5594884688965 3652.6681167889483 603.927135272829 3650.9930612211183 C592.5678660002009 3653.8921847172987 581.2617478077552 3656.9619130430583 569.9992221906095 3660.172991380421 C545.1599989938106 3667.307691146426 520.479215256739 3675.023721800314 496.11560009078516 3683.84940797562 C471.69919590922746 3692.516944342862 447.4941650288324 3701.9769676604037 423.9232540519258 3713.550868815405 L423.9761154804455 3713.550868815405 C450.1365847385723 3710.9613829471 475.6629340932109 3706.2577295896735 500.9778377337709 3700.7612996302832 C526.2926689614151 3695.423598782284 551.3433378722928 3688.975952761204 576.2354224976114 3681.946975852239 C601.074790520242 3674.864992688924 625.7554294314821 3667.148962035035 650.119044597436 3658.3232758597287 C673.7092898228559 3649.9309085724526 697.1509437450945 3640.795584769269 720.0122805602698 3629.6694850854537 C721.590157995123 3631.1328052875424 723.166876823324 3632.59786339961 724.742147393209 3634.0643697699934 C702.5092098611756 3640.2634946641156 681.1403032402329 3648.193577897051 660.0548207716545 3656.737722655803 C637.699505411952 3665.669131688148 615.8197980830951 3675.605052688198 594.2571144995243 3686.12201492447 C572.694575741785 3696.691983415092 551.4490607293319 3707.8432827935994 530.6791537477241 3719.998514836485 C509.85653016342826 3732.048313673994 489.40379175293833 3744.7848766047646 469.9023418170543 3759.582890421969 C493.52604180956496 3753.2936838606156 516.1455918989495 3744.9436057161547 538.4480458301323 3735.9061841751072 C560.7506445871463 3726.9747751427612 582.630207090172 3717.038854142712 604.1928906737428 3706.52189190644 C625.7554294314821 3695.951923415818 647.0009444439349 3684.800913688973 667.7708514255428 3672.645391994425 C687.6839687876379 3661.1511450467824 707.2125735669392 3649.031829810124 725.8977127032315 3635.140425698489 C727.3469847996589 3636.4907817519606 728.7952431152655 3637.8422964120846 730.2423428242196 3639.195259330524 C709.8230591808201 3650.046479586038 690.6439191330744 3662.4583430024486 671.8930290692538 3675.3936069741194 C652.0744829751677 3688.922946506853 632.890129197486 3703.351075150251 614.1813834506495 3718.30723877552 C595.4726377038128 3733.316698306802 577.1867833851334 3748.7487596145793 559.587837985546 3765.132036984047 C541.9746996544657 3781.3255925141693 524.8846722269825 3798.094396247251 509.1503594087385 3816.58344120761 C530.6863950393022 3805.3678391598905 550.8158821937488 3792.3815964955093 570.4748302214548 3778.8201056281705 C590.3462377440603 3765.2904764437744 609.4778749190541 3750.862637452039 628.2393372685788 3735.9591904294584 C647.0009444439349 3721.0027371525266 665.2869435884461 3705.5176695903983 682.885744162202 3689.187398475283 C699.7320297151684 3673.7489648309174 716.1001003723218 3657.736441590245 731.2609028975855 3640.14792365053 C732.1689608614709 3640.997471978465 733.0767291736931 3641.847599609726 733.9839181825889 3642.698306544313 C716.6634728570928 3657.2159375516158 700.7436381486195 3672.92056107439 685.316790570779 3689.028669363892 C668.4579051704666 3706.4691753037523 652.4972295774933 3724.5964453368724 637.0124516670285 3743.14660679815 C621.5803903592516 3761.7494848621163 606.6239370823198 3780.775544005902 592.5659832643905 3800.4883672429487 C578.4231615091664 3820.119219059332 564.8600775576799 3840.2245202999084 553.0341794557633 3861.75114225142 C572.0921002824925 3846.224654501466 589.4103732205153 3829.2223915279083 606.1483290514748 3811.7450998268323 C623.0073592776187 3794.3048835386353 638.9678900447602 3776.1776135055143 654.4526679552253 3757.6274520442366 C669.8847292630021 3739.077290582959 684.8411825399337 3720.0512314391735 698.8991363578632 3700.3384082021266 C711.9162269243661 3682.3185989360236 724.442213096047 3663.807830100931 735.5745402906196 3644.190591912714 C736.8568282032577 3645.3943842246463 738.1382471609063 3646.599045491568 739.4187971635656 3647.804865365142 C725.4752557525692 3666.0167136838936 713.2807759093307 3685.1279304166374 701.6473513375581 3704.566453528708 C689.1748058977232 3725.125059622069 677.7064827739298 3746.211990348963 666.819490538021 3767.615799995312 C655.9853597306317 3789.0198992933238 645.7325598111267 3810.741167162453 636.483837381832 3832.9377534107653 C627.1295369213294 3855.13462931074 618.4622902057506 3877.648673781833 611.803198470592 3901.1666509173037 C626.9180912072509 3881.929435711103 639.9719675349704 3861.635281586172 652.2859286892462 3840.970952635772 C664.7054678747302 3820.3596299397223 676.1739358243551 3799.2726992128282 687.0609280602639 3777.8685999148165 C697.8950588676532 3756.4647902684683 708.1478587871579 3734.743522399338 717.3964363906211 3712.5466464993633 C726.1747645190071 3691.8834761556154 734.308617696948 3670.898213162477 740.7677049587214 3649.0755672112546 C741.7690307581317 3650.0192523297046 742.769777254216 3650.96351675148 743.7699444469738 3651.908360476581 C734.0907996462809 3672.192956096629 726.1947504837624 3692.9166636379696 718.9819895945473 3713.8680373865227 C711.0545132265802 3736.3817922059525 704.2369820316942 3759.1599989938113 698.0534983273806 3782.14965149575 C691.9230208774181 3805.139014346024 686.4267357438598 3828.28710630769 681.9873895290311 3851.752366840473 C677.3894590286436 3875.1116148645533 673.584305130219 3898.735604508727 671.9458904977732 3922.940635389122 L671.9987519262929 3922.940635389122 C682.6742984481234 3901.1666509173037 691.2359671324944 3878.86405216029 699.0048592149024 3856.297291086509 C706.8794741543497 3833.7835362670794 713.697005349236 3811.0053294792206 719.9332056562375 3788.015676977282 C726.1166893605512 3765.0790307296957 731.6129744941095 3741.9309387680305 736.0523207089382 3718.46596788691 C740.2456078359453 3697.113426584934 743.735620724894 3675.585356375106 745.5602813767266 3653.6010847958623 C748.6055341369524 3656.4819602372663 751.6458628189052 3659.3680494086075 754.6811225967533 3662.2596419615475 C749.7891956582976 3682.366681112102 746.5414763855499 3702.588711972916 743.8740742198659 3722.852452673219 C740.7559740663651 3745.6833760637664 738.7476742601136 3768.6200223113538 737.373566770266 3791.6096748132913 C736.0523207089382 3814.5990376635664 735.3652669640144 3837.588690165504 735.8410198206911 3860.683775872818 C736.1580435659776 3883.7791512317954 737.2678439132267 3906.8742369391093 740.6502512093259 3930.1280517578143 C746.7280120566002 3907.4555678269935 750.480304526505 3884.624644436446 753.4926818229667 3861.741004443211 C756.6636434049872 3838.909791401001 758.6719432112386 3815.9731451534135 759.9931892725665 3792.9837823031385 C761.2615739053747 3769.994129801201 761.9486276502985 3747.004766950926 761.4730196194532 3723.9093915919493 C761.1616440815978 3704.473185693183 760.326288685156 3685.0369797944177 758.0849641159234 3665.5063474534745 C760.640126262148 3667.9466627152715 763.1916677625836 3670.390743448688 765.7395886172301 3672.838300002064 C763.9618515348232 3692.9977661036437 764.0102233625644 3712.9191385381373 764.5382583444346 3732.841090275958 C765.2780286920463 3754.7735142075026 766.8635818959724 3776.5474986793206 769.2417668760297 3798.26876654845 C771.6200966819188 3819.989744765917 774.7381968354196 3841.658006380695 778.7546516220912 3863.1678285357466 C782.9298355201533 3884.730367293486 787.63348887758 3906.1871831941853 794.6624657865448 3927.379836778119 L794.6624657865448 3927.3271201754314 C796.9877893380826 3905.077527672768 796.9877893380826 3883.14481408956 796.4064584501982 3861.2123901580144 C795.7194047052744 3839.2799662264697 794.0811348986604 3817.5059817546517 791.755666521291 3795.7847138855223 C789.4303429697532 3774.063446016392 786.3122428162524 3752.448190655965 782.2956432037493 3730.8856518982257 C778.7511758021337 3712.625142100069 774.8259612893453 3694.402866321445 769.3880409659059 3676.3480092041045 C771.6914958168782 3678.567030595277 773.9921989770507 3680.7886588514175 776.2898607947604 3683.0134732758515 C778.1162593565718 3701.7484324982006 781.7044641593186 3719.898295361045 785.7837733568874 3737.9146288071906 C790.328697602924 3757.4687229328465 795.7722661337941 3776.7589443933994 801.9027435837565 3795.7847138855223 C808.0333658595505 3814.8634896319963 814.9037584829562 3833.6248071556893 822.6197891368447 3852.174968616967 C830.4415426477724 3870.619696872868 838.8446270465845 3888.958412620067 849.4673121398953 3906.5570683679916 L849.4673121398953 3906.504351765304 C847.8290423332812 3886.051468528982 843.971027006337 3866.285928689247 839.5316807915083 3846.67882830924 C834.9866117196402 3827.1244445319207 829.5959046172898 3807.8345127230314 823.4654271673273 3788.808453579245 C817.3348048915334 3769.7299674844344 810.4644122681275 3750.968360309078 802.7483816142392 3732.4181988478003 C796.407472231019 3717.5231517234506 789.7580838265749 3702.7656891390834 781.83451775606 3688.393463266667 C806.7280506396944 3712.5967562370834 831.2789256058561 3737.138362350025 855.4922115586498 3761.960930576195 C907.8131500749037 3815.8674222963746 958.5486802130629 3871.4121838231686 1005.2147493101993 3929.863889441048 L1022.1266409648629 3915.9643750828454 C972.6594954595118 3858.3584523212803 919.6515031983345 3804.451960601101 865.1108191617507 3752.236744941886 C837.9590170865911 3726.37143072848 810.4809224129256 3700.8846912387735 782.6313494813066 3675.815339795625 C791.5148211634055 3678.4804247480033 800.4339200000684 3680.767514280009 809.3803909188962 3682.8063723367204 C802.5756043971874 3682.071236415718 795.7196943569377 3681.5177120874932 788.7961506533491 3681.206915852965 C807.4520349716661 3691.3012763127417 826.742111606387 3699.0700235693184 846.1906277008354 3706.3104461923613 C865.6921500496351 3713.445145958365 885.4049732866818 3719.681346265367 905.329242237807 3725.1777762247575 C925.2535111889322 3730.674206184147 945.3892258541357 3735.430576144262 965.7362414075865 3739.3414528997255 C986.1361183895569 3743.14660679815 1006.694579657086 3746.3704298086905 1027.8872332410194 3747.321645870381 C1009.2313489227024 3737.2275750622666 989.9412722879815 3729.4585381540264 970.4926113677016 3722.2181155309836 C950.9912338447334 3715.136422019331 931.2784106076867 3708.8472154579777 911.3541416565615 3703.351075150251 C899.93795583213 3700.1712791925056 888.4522536085494 3697.251880079906 876.8973246374828 3694.6030156206616 C885.9357599593516 3695.776973811292 894.9889675160396 3696.806685473688 904.0608576049988 3697.6959160794713 C925.623396362738 3699.7570773142425 947.2389413748285 3701.1311848040896 968.9600644181266 3701.606792834935 C973.6812417011724 3701.6757299307574 978.4050258491861 3701.7197569835516 983.1334444238098 3701.7197569835516 C1000.0799494522164 3701.7197569835516 1017.0867020265523 3701.1549362404658 1034.2531974930996 3699.1511260349926 C1013.2447623669113 3692.3770425895746 992.0269090882864 3687.9042416076554 970.7040570817801 3684.0081370870103 C949.3001026095997 3680.2029831885857 927.843141883068 3677.2960390975004 906.2806031253288 3675.1821612600415 C884.717919541758 3673.0682834225818 863.102519355499 3671.6941759327347 841.3813963122009 3671.2185679018894 C836.5046760860591 3671.1354378745737 831.6253489949493 3671.084459181864 826.7408081739031 3671.084459181864 C811.1688451128387 3671.084459181864 795.5454688815701 3671.603804613841 779.7931976602126 3673.2629293401997 C778.100038863437 3671.7419684571496 776.4055766341774 3670.222455832415 774.7096661466021 3668.7046811176597 C792.3148390569465 3670.4550461179015 809.8129856777678 3671.02189442263 827.2658018133104 3671.02189442263 C832.1678665599754 3671.02189442263 837.0664554866828 3670.9772880665096 841.9627272000853 3670.9013993307717 C865.8507343351941 3670.637237014005 889.6857352159516 3669.263129524157 913.4151580655011 3667.2546848920747 C937.1445809150509 3665.140807054615 960.8740037646007 3662.4453086776084 984.4449871544232 3658.587438176495 C1008.0686871469336 3654.8880071351105 1031.5866642824049 3650.395799491762 1054.9462019581485 3643.6839911539146 L1054.9462019581485 3643.6309848995634 C1035.7698136012027 3641.533037903576 1016.7269546609557 3640.867418381724 997.7378261042177 3640.867418381724 C992.8104168370296 3640.867418381724 987.8866282156305 3640.9123143895076 982.9651568075365 3640.988492776908 C959.0771496724278 3641.2526550936745 935.2420039658386 3642.6267625835226 911.5125811162889 3644.635207215605 C887.7831582667393 3646.696368450376 864.0537354171895 3649.39157717572 840.4828968531986 3653.249737328496 C817.924970155143 3656.782329011923 795.4633526350751 3661.0376015948386 773.1440989074315 3667.304215326468 C772.2977367477911 3666.547645182395 771.4510849364876 3665.791364689985 770.6041434735209 3665.0353738492386 C791.4199602437334 3661.0054502602325 811.6165017581925 3655.3720150641857 831.5513429950217 3649.1274148589537 C853.5367731809181 3642.362600266755 875.1521733671768 3634.5938530101794 896.5034112366693 3626.1907686113673 C917.8545042803298 3617.734677958204 938.9414350072241 3608.697546068819 959.6056191317925 3598.6031856090412 C980.3226646848807 3588.6148376579667 1000.7754030953706 3577.8861400559535 1020.3825034753781 3565.096570870832 C997.2872729422324 3569.113170483335 975.0376804395694 3575.243937584961 953.1051116821927 3582.1141853825347 C931.0669648936082 3588.8789999747332 909.5042813100374 3596.64774723131 888.1531882663767 3605.050831630122 C866.8019503968844 3613.5069222832853 845.7150196699904 3622.5440541726693 825.0508355454217 3632.638414632447 C805.8676403743925 3641.8872818875734 786.9106631522609 3651.725590277152 768.6420431075371 3663.2858778039863 C767.4473748229932 3662.2214079420155 766.2519824092917 3661.1575173833708 765.0560106922637 3660.0944957797155 C786.5380262876554 3650.651851561961 806.74065048704 3639.418001459464 826.5306658923084 3627.5648761012144 C846.6135191289927 3615.620800120744 866.062035223441 3602.8312309356234 885.140810969915 3589.4603308626174 C904.1665804620379 3576.0364245352603 922.822464780355 3562.1371998287214 940.8441567822679 3547.2864694088294 C958.9048069328705 3532.5527582608383 976.5431449586424 3517.185868577263 992.9157052165742 3499.9733184962797 C971.1756099893414 3509.53066477263 950.7519815709952 3520.8783479787335 930.7497963224903 3532.858630417094 C910.667087911638 3544.749700143213 891.2184269913578 3557.5919859310225 872.1397960707154 3570.9101694013398 C853.0611651500728 3584.3337860770334 834.4052808317558 3598.233300435236 816.3835888298429 3613.084030855128 C798.4537164051396 3627.668281744949 780.9893142030721 3642.872966497175 764.8085033461266 3659.8743605157433 C763.5349049833824 3658.742691467928 762.2604376656486 3657.61160172344 760.9852462187571 3656.4816705856038 C777.0978441090374 3642.938717424704 791.8547273900786 3628.2829225740925 806.1307889103382 3613.1897537121677 C821.9327353919209 3596.700753485661 836.836327240333 3579.4716932598794 851.2113048035487 3561.8727478602923 C865.5864271925959 3544.2210858580165 879.4329352964467 3526.146532427584 892.4339501956465 3507.3849252522277 C905.433372010699 3488.754240628603 917.9086691413336 3469.7044300484404 928.6073877962137 3449.19129926619 C910.6601362717229 3463.7897430875037 894.4408017435824 3479.801976676513 878.7987429800426 3496.339638382423 C862.9967964984598 3512.8286386089294 848.0932046500477 3530.00469258036 833.6653656583126 3547.603637979947 C819.2902432692654 3565.2022937278716 805.4437351654144 3583.276847158304 792.4427202662148 3602.0384543336604 C780.540354125234 3618.9801801096255 769.1609540620188 3636.3578316385874 759.1358203497275 3654.8436904306527 C757.1370790483588 3653.0750773756336 755.13645501118 3651.308491882257 753.1338034123594 3649.543933950522 C767.9645478674963 3633.015251446168 781.1434088878525 3615.520580645304 793.6582434705033 3597.599252944663 C807.029143543509 3578.7846395149554 819.3959661263045 3559.388984849027 831.2343192497353 3539.623155357629 C842.9668046902955 3519.804609263543 854.2238269258416 3499.721900852691 864.4766268453466 3479.0578615539534 C874.8351496218907 3458.4465388579047 884.5593352561991 3437.4123247336993 892.3282273386071 3415.268455088075 C876.5262808570244 3432.655954773584 862.5740498961343 3451.100393377822 849.3615892828559 3470.020440012906 C835.9906892098504 3488.8877700453013 823.6240114528862 3508.2834247112305 811.7856583294554 3527.9962479482765 C800.0001666345443 3547.7620774396746 788.7432892248294 3567.844785850527 778.4904893053247 3588.509114800927 C768.6712979255124 3607.947927564661 759.5101951243118 3627.7629978387895 751.9827277031152 3648.5301531295972 C749.2782501245517 3646.1495061104033 746.5702967260306 3643.7729142144935 743.8585778558888 3641.4000877902035 C754.6527367337674 3622.3166776171192 763.6022489950581 3602.675687992527 771.8842589986855 3582.748522524771 C780.7102348256547 3561.8200312576037 788.4789820822311 3540.521654816631 795.6136818482353 3519.0648389159314 C802.6955201857195 3497.608023015231 809.1960276353193 3475.8867551461017 814.58673473767 3453.848608357517 C820.1119850375403 3431.905177662774 824.8514103753628 3409.752618467256 827.5525569598005 3386.9205364700565 C816.0425239965177 3406.8743498908198 806.6239208668021 3427.45612811723 797.9391502256046 3448.3521783981278 C789.0603129701158 3469.227663410943 781.3444271420587 3490.526039851916 774.1568659475352 3511.9828557526153 C767.0221661815312 3533.439961304978 760.5745201604509 3555.160939522445 755.1309516295807 3577.1990863110295 C749.9124424409558 3597.874422024628 745.3484011851533 3618.7832169787025 742.6252410743184 3640.321714648403 C740.0212726228579 3638.0453422279325 737.4139731772714 3635.7727352790826 734.8033427375592 3633.5038938018533 C741.1933480776784 3612.317902206172 745.7980853921492 3590.9187269864333 749.6875279245421 3569.430339054453 C754.0740127108511 3546.12380763306 757.350697149911 3522.6585471002772 759.9403278440468 3499.1405699648067 C762.4770971096632 3475.569586574984 764.4325354873952 3451.998892836825 765.2253120893581 3428.2694699872745 C766.1765281510486 3404.540047137725 766.3351124366075 3380.7576180338247 764.2739512018363 3356.7110266131567 C757.033528578793 3379.7006791150943 752.01285147608 3402.9544939337993 747.7320895468101 3426.3140316095432 C743.3456047605011 3449.620563030936 740.0689203214413 3473.085823563719 737.4264281987857 3496.6038006991903 C734.8367975046497 3520.1744944373486 732.8813591269177 3543.7454778271713 732.0885825249547 3567.4749006767215 C731.2365721578833 3588.729829368225 731.0629259858422 3610.027047202546 732.5171221605426 3631.5189109544835 C730.8613284283097 3630.0822387054013 729.2040864377611 3628.647304366299 727.5455410147285 3627.2138182855115 C729.083880997566 3603.6920756784193 728.7872776945296 3580.381778785407 727.8606820242046 3557.116377900177 C726.9621825652023 3531.907124703741 724.9538827589508 3506.8035943643436 722.3115354621266 3481.805786881986 C719.6161819109514 3456.8079793996276 716.286636043372 3431.8631781716213 711.7944284000237 3407.0238101489904 C707.4696394179596 3382.1827042163814 702.3554048280582 3357.499458440173 695.0334452618463 3333.027079074717 C693.0335453538253 3358.5199012493495 693.2984317997496 3383.7497197138673 694.3012058574757 3408.926531924034 C695.1468438879583 3434.135785120471 697.1551436942098 3459.1863092055164 699.7976358168655 3484.2368332905626 C702.4929893680408 3509.23464077292 705.8752518383083 3534.17973165259 710.3145980531369 3559.019099675221 C714.1566825386094 3581.0404466673444 718.6219525772874 3602.978953283815 724.7044926770034 3624.760758350537 C722.613352495099 3622.957387095944 720.520184751553 3621.156333054656 718.4246997947018 3619.3575962266723 C715.3032686470751 3595.5632914045837 710.453341199772 3572.28543549784 704.924035776618 3549.1889015322104 C699.057720643422 3524.191094049852 692.1873280200164 3499.5634613929633 684.6297368258552 3475.14698479849 C677.0722904575257 3450.7305082040166 668.8806517727921 3426.472471069271 659.5790679149777 3402.584608759993 C650.4362131685536 3378.643740196365 640.5532984228548 3354.9143173468156 628.503644411177 3331.8719482421893 Z "></path>
    </defs>
    <g style="mix-blend-mode:normal">
      <use xmlns:xlink="http://www.w3.org/1999/xlink" xlink:href="#s-Union_1-d1224" fill="#EFEFEF" fill-opacity="0.3"></use>
    </g>
  </g>
</svg>
