<?xml version="1.0" encoding="UTF-8"?>
<svg xmlns="http://www.w3.org/2000/svg" width="25.0" height="25.00000126331213" viewBox="1361.9695214162189 346.868279462592 25.0 25.00000126331213" preserveAspectRatio="none">
  <g>
    <defs>
      <path id="mi-6b051d4b-Path_19-d1224" d="M1386.9695214162189 359.444832691387 C1386.9695214162189 352.4988257873191 1381.373345911368 346.868279462592 1374.471083721005 346.868279462592 C1367.565696775205 346.86984239903416 1361.9695214162189 352.4988261598016 1361.9695214162189 359.44639562782913 C1361.9695214162189 365.7221739654438 1366.5408251879946 370.9246485368822 1372.5150782215555 371.8682807259041 L1372.5150782215555 363.0803167214569 L1369.343599701093 363.0803167214569 L1369.343599701093 359.44639562782913 L1372.5182028311278 359.44639562782913 L1372.5182028311278 356.67330461521055 C1372.5182028311278 353.5221360738818 1374.3851570437964 351.7817284966893 1377.2394877867093 351.7817284966893 C1378.6080666942212 351.7817284966893 1380.0375755391349 352.02701034465247 1380.0375755391349 352.02701034465247 L1380.0375755391349 355.1203737040165 L1378.4612101727319 355.1203737040165 C1376.9098416392562 355.1203737040165 1376.4255271748418 356.0905649174431 1376.4255271748418 357.0857530569177 L1376.4255271748418 359.44483315699006 L1379.8907189245247 359.44483315699006 L1379.337663053159 363.07875387813533 L1376.4239646108822 363.07875387813533 L1376.4239646108822 371.866717789462 C1382.398217644443 370.92308578668127 1386.9695214162189 365.72061102900165 1386.9695214162189 359.444832691387 Z "></path>
    </defs>
    <g style="mix-blend-mode:normal">
      <use xmlns:xlink="http://www.w3.org/1999/xlink" xlink:href="#mi-6b051d4b-Path_19-d1224" fill="#6C757D" fill-opacity="1.0"></use>
    </g>
  </g>
</svg>
