<?xml version="1.0" encoding="UTF-8"?>
<svg xmlns="http://www.w3.org/2000/svg" width="25.0" height="20.3035507150894" viewBox="1281.9695214162189 349.216504736703 25.0 20.3035507150894" preserveAspectRatio="none">
  <g>
    <defs>
      <path id="mi-6b051d4b-Path_15-d1224" d="M1289.8226464519817 369.52005475676845 C1299.2570216188747 369.52005475676845 1304.4179583320933 361.7028675965149 1304.4179583320933 354.93568032897304 C1304.4179583320933 354.7169303280417 1304.4179583320933 354.4950553207774 1304.4085833320119 354.27630534312914 C1305.4133474576952 353.5489507950388 1306.280563358752 352.6484008228835 1306.9695214162189 351.6169298431952 C1306.030956992908 352.03075586816885 1305.0363274707695 352.3035023389157 1304.0179588253218 352.426304853626 C1305.0903796336033 351.7852858036324 1305.8941924756589 350.775936852451 1306.278896367045 349.58724230445216 C1305.271078414361 350.18430287216165 1304.1679659215768 350.6034539179748 1303.017959033938 350.82630477763007 C1301.0899345909309 348.77297738405656 1297.8137770884998 348.6698686364691 1295.7604496949264 350.59789307947625 C1294.4271730224896 351.8498074219209 1293.859732359923 353.72310322229055 1294.2742089162189 355.504430084594 C1290.151763055705 355.29772034281865 1286.3054018166615 353.3486776473008 1283.7007711062747 350.14661773956607 C1282.3507980587128 352.478206240839 1283.0518284946525 355.49580479560245 1285.2913961167055 356.99349269188235 C1284.4782156889923 356.96586443565195 1283.6828012987305 356.7474731279935 1282.9695213938671 356.3559919587452 L1282.9695213938671 356.4263044615392 C1282.9724014670592 358.85709977183666 1284.7000949264818 360.9694544469299 1287.0820213461834 361.45442936021135 C1286.6418094968385 361.5757003716968 1286.187064750261 361.6361577661807 1285.7304588312822 361.6341168634709 C1285.4085590627446 361.6350929062991 1285.087302954569 361.60526945759034 1284.7710837962645 361.54505436342436 C1285.4414376652737 363.6286421567489 1287.3748459215378 365.0640417751294 1289.5632711591738 365.1028667859383 C1287.7457489987314 366.5303957382547 1285.499377509889 367.30506370286133 1283.1882713715154 367.30130463755916 C1282.780960165465 367.30302450448346 1282.3739324374749 367.27954213376654 1281.9695214162189 367.2309921347652 C1284.3153959252397 368.7265629876253 1287.040586306856 369.52091318732187 1289.8226464519817 369.52005475676845 Z "></path>
    </defs>
    <g style="mix-blend-mode:normal">
      <use xmlns:xlink="http://www.w3.org/1999/xlink" xlink:href="#mi-6b051d4b-Path_15-d1224" fill="#6C757D" fill-opacity="1.0"></use>
    </g>
  </g>
</svg>
