<?xml version="1.0" encoding="UTF-8"?>
<svg xmlns="http://www.w3.org/2000/svg" width="24.0" height="24.0" viewBox="1321.9695214162189 347.36828009424835 24.0 24.0" preserveAspectRatio="none">
  <g>
    <defs>
      <path id="mi-6b051d4b-Path_18-d1224" d="M1333.9695214162189 347.36828009424835 C1330.7130214104968 347.36828009424835 1330.3035217652637 347.3832800939131 1329.0240215192157 347.4402800948742 C1327.7445212731677 347.5002800935331 1326.8730214963275 347.7012800985399 1326.1095214019138 347.9982800745788 C1325.3086906457816 348.29949805529236 1324.5832374205322 348.77204095215535 1323.984021318944 349.38278004167705 C1323.3736569248297 349.98230325229184 1322.9011717263245 350.7076679065314 1322.5995213965493 351.50828007994323 C1322.3025214205104 352.270279925448 1322.1000214124638 353.1432799511972 1322.0415214168447 354.41827980814605 C1321.9845214158836 355.7007798367563 1321.9695214162189 356.10878030596405 1321.9695214162189 359.3697807007852 C1321.9695214162189 362.6277805977884 1321.9845214158836 363.0357807093683 1322.0415214168447 364.3152805977884 C1322.1015214155036 365.59328059492736 1322.3025214093345 366.4647805505815 1322.599521430077 367.22828064499527 C1322.9070214273947 368.01728067932754 1323.316521407904 368.6862806492868 1323.9840213971752 369.35378072796493 C1324.6500214057583 370.0212807172361 1325.3190213757175 370.4322807007852 1326.1080214100498 370.73828069506317 C1326.8730213957447 371.03528069345384 1327.7430214601177 371.23778070150047 1329.0210214572567 371.2962807082954 C1330.3020211587268 371.3532797509256 1330.7100216279346 371.36828009424835 1333.9695214162189 371.36828009424835 C1337.2290212045032 371.36828009424835 1337.635521424802 371.3532800945836 1338.916521562131 371.2962800936225 C1340.193021578582 371.2362800949636 1341.0675215850192 371.0352801011327 1341.831021500619 370.73828008039027 C1342.6313376016203 370.43691211864103 1343.3562704816661 369.9643746692588 1343.9550215134936 369.35378011329203 C1344.6225215027648 368.68628012402087 1345.0320215056258 368.0172801540616 1345.3395214805919 367.22828003032237 C1345.6350214759427 366.4647800253156 1345.8375214616376 365.59327998025447 1345.8975214938241 364.3152799831155 C1345.9545210728961 363.0357796364847 1345.9695214162189 362.6277805977884 1345.9695214162189 359.36828009424835 C1345.9695214162189 356.1087795907083 1345.9545214165541 355.70078019438415 1345.897521415593 354.41978005705505 C1345.8375214169341 353.14328004060417 1345.6350214200634 352.27028010426193 1345.3395214023608 351.50828007994323 C1345.0379141916883 350.7076460784214 1344.5654232300762 349.9822725847598 1343.9550214352626 349.38277999697357 C1343.3559903580344 348.7718151673295 1342.6304835629526 348.2992374537367 1341.8295210728961 347.9982800745788 C1341.0645210872012 347.70128007618814 1340.191521061452 347.4987800681415 1338.915021134408 347.4402800613466 C1337.634021175893 347.3832800939131 1337.227521313222 347.36828009424835 1333.9665216336566 347.36828009424835 L1333.9710216336957 347.36828009424835 Z M1332.8940214047748 349.5312801414552 L1333.971021396907 349.5312801414552 C1337.175021273883 349.5312801414552 1337.5545213053542 349.5417801417793 1338.8190215657073 349.60028014158934 C1339.989021522792 349.65278014181285 1340.6250215599853 349.8492801321122 1341.0480214784461 350.01278015053003 C1341.6075214723664 350.23028014427155 1342.0080214569884 350.4912801591131 1342.42802150348 350.91128011619776 C1342.8480215052682 351.3312801179859 1343.10752151707 351.7302801219198 1343.3250214884597 352.2912801412317 C1343.4900214875656 352.71278012370794 1343.685021480413 353.34878011619776 1343.7375214974004 354.5187801626894 C1343.7960214986074 355.78328015482157 1343.8080214949864 356.16278009688585 1343.8080214949864 359.36528008258074 C1343.8080214949864 362.5677800682756 1343.7960214944164 362.948779991028 1343.7375214974004 364.2132802513811 C1343.6850214971769 365.38328020846575 1343.4885215068775 366.017780175564 1343.3250214884597 366.44078027283877 C1343.1326418828864 366.9617987391665 1342.8255462431894 367.4329521828132 1342.426521522792 367.8192803171846 C1342.0065215210038 368.23928031897276 1341.60752151707 368.4987803307745 1341.046521497758 368.71628030216425 C1340.6265214959699 368.8812803012702 1339.99052150348 369.0762802941176 1338.8190214763003 369.13028029179304 C1337.5545214841682 369.1872802899602 1337.1750215421039 369.20078028937905 1333.9710213075 369.20078028937905 C1330.7670210728961 369.20078028937905 1330.3860211501437 369.1872802899602 1329.1215212474185 369.13028029179304 C1327.9515212903339 369.0762802941176 1327.3170213232356 368.8812803012702 1326.8940212259608 368.71628030216425 C1326.3727902621758 368.52416951732727 1325.9011951341008 368.21763269477225 1325.514021200927 367.8192803171846 C1325.114663069317 367.43234570798444 1324.807098109606 366.96074611327873 1324.614021165164 366.43928029215067 C1324.450521169098 366.01778030967444 1324.2540211732107 365.3817803171846 1324.2015211562234 364.211780270693 C1324.1445211580562 362.9472802785608 1324.1325211560893 362.5677803364965 1324.1325211560893 359.3622802106115 C1324.1325211560893 356.1582803336355 1324.1445211566593 355.7802801934454 1324.2015211562234 354.51578029072016 C1324.2555211538988 353.3457803336355 1324.4505211467463 352.7097802964422 1324.6155211458522 352.28678037798136 C1324.8330211395937 351.72728038406103 1325.0940211544353 351.32678039943903 1325.51402111152 350.9067803529474 C1325.934021113308 350.48678035115927 1326.333021117242 350.22728033935755 1326.8940211365539 350.0097803679678 C1327.3170211444217 349.84478036886185 1327.95152111152 349.6497803760144 1329.1215211580115 349.595780378339 C1330.2285211215335 349.54478037556737 1330.6575212309676 349.5297803786966 1332.8940213153678 349.5282803756568 L1332.8940213153678 349.53128037579927 Z M1340.3760212788898 351.5232800656381 C1339.5860606672359 351.5197472455517 1338.9331142394317 352.16687953006664 1338.9295814193454 352.95684014172065 C1338.9260268168637 353.7516714328644 1339.581189987746 354.40683460374686 1340.3760212788898 354.4032800012651 C1341.1659818905437 354.39974718117867 1341.8131141750587 353.74680075337466 1341.8095813549724 352.95684014172065 C1341.8060702939124 352.1717449841572 1341.1611164364533 351.52679112669796 1340.3760212788898 351.5232800656381 Z M1333.9710213075 353.20628003416687 C1330.5902366736066 353.1535234260543 1327.7648591732936 355.89207666939853 1327.712102565181 359.272861303292 C1327.6593459570684 362.65364593718544 1330.3978992004127 365.47902343749837 1333.778683834306 365.53178004561096 C1333.842792422761 365.53278044996796 1333.906912719045 365.53278044996796 1333.9710213075 365.53178004561096 C1337.3518059413934 365.47902343749837 1340.0903591847377 362.65364593718544 1340.0376025766252 359.272861303292 C1339.9859781698585 355.96463116162647 1337.2792514491655 353.2579044409334 1333.9710213075 353.20628003416687 Z M1333.9710213075 355.3677800112787 C1336.1656307263204 355.3579653950531 1337.9795975992301 357.1557798504419 1337.9894122154558 359.35038926926234 C1337.999287345901 361.55853004512323 1336.1791620833608 363.3786553076633 1333.9710213075 363.368780177218 C1331.7764118886796 363.35896556099243 1329.9785974332908 361.5449986880828 1329.9884120495165 359.35038926926234 C1329.9981662164437 357.16929669066974 1331.7899287289074 355.37753417820596 1333.9710213075 355.3677800112787 Z "></path>
    </defs>
    <g style="mix-blend-mode:normal">
      <use xmlns:xlink="http://www.w3.org/1999/xlink" xlink:href="#mi-6b051d4b-Path_18-d1224" fill="#6C757D" fill-opacity="1.0"></use>
    </g>
  </g>
</svg>
